<?xml version="1.0" encoding="UTF-8"?>
<svg enable-background="new 0 0 34 34" version="1.1" viewBox="0 0 34 34" xml:space="preserve" xmlns="http://www.w3.org/2000/svg">
<path style="fill-rule:evenodd;clip-rule:evenodd;fill:#FFFFFF;" d="m16.9 1.1c-9 0-16.3 7.3-16.3 16.3 0 7.2 4.7 13.3 11.1 15.5 0.8 0.1 1.1-0.4 1.1-0.8v-2.8c-4.5 1-5.5-2.2-5.5-2.2-0.7-1.9-1.8-2.4-1.8-2.4-1.5-1 0.1-1 0.1-1 1.6 0.1 2.5 1.7 2.5 1.7 1.5 2.5 3.8 1.8 4.7 1.4 0.1-1.1 0.6-1.8 1-2.2-3.6-0.4-7.4-1.8-7.4-8.1 0-1.8 0.6-3.2 1.7-4.4-0.2-0.4-0.7-2.1 0.2-4.3 0 0 1.4-0.4 4.5 1.7 1.4-0.3 2.8-0.5 4.1-0.5 1.4 0 2.8 0.2 4.1 0.5 3.1-2.1 4.5-1.7 4.5-1.7 0.9 2.2 0.3 3.9 0.2 4.3 1 1.1 1.7 2.6 1.7 4.4 0 6.3-3.8 7.6-7.4 8 0.6 0.5 1.1 1.5 1.1 3v4.5c0 0.4 0.3 0.9 1.1 0.8 6.5-2.2 11.1-8.3 11.1-15.5-0.1-8.9-7.4-16.2-16.4-16.2z" clip-rule="evenodd" fill="#fff" fill-rule="evenodd"/>
<path style="fill-rule:evenodd;clip-rule:evenodd;fill:#FFFFFF;" d="m16.9 0.1c-9 0-16.3 7.3-16.3 16.3 0 7.2 4.7 13.3 11.1 15.5 0.8 0.1 1.1-0.4 1.1-0.8v-2.8c-4.5 1-5.5-2.2-5.5-2.2-0.7-1.9-1.8-2.4-1.8-2.4-1.5-1 0.1-1 0.1-1 1.6 0.1 2.5 1.7 2.5 1.7 1.5 2.5 3.8 1.8 4.7 1.4 0.1-1.1 0.6-1.8 1-2.2-3.6-0.4-7.4-1.8-7.4-8.1 0-1.8 0.6-3.2 1.7-4.4-0.2-0.4-0.7-2.1 0.2-4.3 0 0 1.4-0.4 4.5 1.7 1.4-0.3 2.8-0.5 4.1-0.5 1.4 0 2.8 0.2 4.1 0.5 3.1-2.1 4.5-1.7 4.5-1.7 0.9 2.2 0.3 3.9 0.2 4.3 1 1.1 1.7 2.6 1.7 4.4 0 6.3-3.8 7.6-7.4 8 0.6 0.5 1.1 1.5 1.1 3v4.5c0 0.4 0.3 0.9 1.1 0.8 6.5-2.2 11.1-8.3 11.1-15.5-0.1-8.9-7.4-16.2-16.4-16.2z" clip-rule="evenodd" fill="#fff" fill-rule="evenodd"/>
<path style="fill-rule:evenodd;clip-rule:evenodd;fill:#FFFFFF;" d="m16.1 0.6c-8.1 0.4-14.9 7-15.4 15.2-0.5 7.7 4.3 14.3 11.1 16.6 0.8 0.1 1.1-0.4 1.1-0.8v-2.8c-4.5 1-5.5-2.2-5.5-2.2-0.7-1.9-1.8-2.4-1.8-2.4-1.5-1 0.1-1 0.1-1 1.6 0.1 2.5 1.7 2.5 1.7 1.5 2.5 3.8 1.8 4.7 1.4 0.1-1.1 0.6-1.8 1-2.2-3.6-0.4-7.4-1.8-7.4-8.1 0-1.8 0.6-3.2 1.7-4.4-0.2-0.4-0.7-2.1 0.2-4.3 0 0 1.4-0.4 4.5 1.7 1.3-0.4 2.7-0.5 4.1-0.5s2.8 0.2 4.1 0.5c3.1-2.1 4.5-1.7 4.5-1.7 0.9 2.2 0.3 3.9 0.2 4.3 1 1.1 1.7 2.6 1.7 4.4 0 6.3-3.8 7.6-7.4 8 0.6 0.5 1.1 1.5 1.1 3v4.5c0 0.4 0.3 0.9 1.1 0.8 6.5-2.2 11.1-8.3 11.1-15.5-0.2-9.2-7.9-16.6-17.3-16.2z" clip-rule="evenodd" fill="#fff" fill-rule="evenodd"/>
</svg>