<!-- Generated by IcoMoon.io -->
<svg version="1.1" xmlns="http://www.w3.org/2000/svg" width="32" height="32" viewBox="0 0 32 32">
<title>close</title>
<path d="M2.708 30.769c-0.246 0-0.738-0.246-0.985-0.492-0.492-0.492-0.492-1.477 0-1.969l26.831-26.585c0.492-0.492 1.477-0.492 1.969 0s0.492 1.477 0 1.969l-27.077 26.585c-0.246 0.246-0.492 0.492-0.738 0.492z"></path>
<path d="M29.292 30.769c-0.246 0-0.738-0.246-0.985-0.492l-26.585-26.831c-0.492-0.492-0.492-1.477 0-1.969s1.477-0.492 1.969 0l26.831 26.831c0.492 0.492 0.492 1.477 0 1.969-0.492 0.246-0.738 0.492-1.231 0.492z"></path>
</svg>
