<!-- Generated by IcoMoon.io -->
<svg version="1.1" xmlns="http://www.w3.org/2000/svg" width="32" height="32" viewBox="0 0 32 32">
<title>favorites</title>
<path d="M31.474 14.012l-7.376 6.238c-0.238 0.198-0.331 0.537-0.243 0.836l2.809 9.584c0.219 0.684-0.502 1.252-1.135 0.929l-9.152-4.908c-0.227-0.126-0.529-0.126-0.756 0l-9.154 4.908c-0.628 0.323-1.349-0.246-1.156-0.929l2.833-9.584c0.088-0.294-0.008-0.633-0.24-0.836l-7.373-6.238c-0.531-0.454-0.294-1.306 0.385-1.402l9.862-1.479c0.272-0.043 0.529-0.227 0.63-0.513l3.859-9.883c0.259-0.657 1.212-0.657 1.469 0l3.861 9.883c0.099 0.283 0.334 0.467 0.628 0.51l9.859 1.479c0.678 0.099 0.916 0.951 0.39 1.405z"></path>
</svg>
