<?xml version="1.0" encoding="utf-8"?>
<!-- Svg Vector Icons : http://www.onlinewebfonts.com/icon -->
<!DOCTYPE svg PUBLIC "-//W3C//DTD SVG 1.1//EN" "http://www.w3.org/Graphics/SVG/1.1/DTD/svg11.dtd">
<svg version="1.1" xmlns="http://www.w3.org/2000/svg" xmlns:xlink="http://www.w3.org/1999/xlink" x="0px" y="0px" viewBox="0 0 1000 1000" enable-background="new 0 0 1000 1000" xml:space="preserve">
<metadata> Svg Vector Icons : http://www.onlinewebfonts.com/icon </metadata>
<g><g transform="translate(0.000000,511.000000) scale(0.100000,-0.100000)"><path d="M124.4,3425.4V1840.8h146.3h146.3v1333.5v1335.9l1640.6-1640.6c899.6-899.6,1650.4-1638.2,1665-1638.2c29.2,0,180.4,151.2,180.4,182.8c0,14.6-738.7,763-1638.2,1662.6L624.1,4717.5H1960h1333.5v146.3V5010H1709H124.4V3425.4z"/><path d="M6730.8,4839.4v-146.3h1333.5h1335.9L7747.4,3040.3L6097,1387.4l92.6-90.2c51.2-48.8,102.4-90.2,114.6-90.2c14.6,0,760.6,736.2,1657.7,1633.3l1633.3,1633.3l12.2-1321.3l12.2-1323.7l141.4-7.3l139-7.3v1587v1584.6H8315.4H6730.8V4839.4z"/><path d="M2030.8-2625.2L392.5-4265.9V-2930v1333.5H246.3H100V-3181v-1584.6h1584.6h1584.6v146.3v146.3H1935.7H599.8l1652.8,1652.8L3903-1167.4l-92.6,90.2c-51.2,48.8-102.4,90.2-114.6,90.2C3681.1-987,2932.7-1725.7,2030.8-2625.2z"/><path d="M6187.2-1079.6c-48.8-51.2-90.2-102.4-90.2-114.6c0-14.6,736.2-760.6,1633.3-1657.7l1633.3-1633.3l-1321.3-12.2l-1323.7-12.2l-7.3-139L6704-4790h1587h1584.6v1584.6v1584.6h-146.3h-146.3v-1333.5v-1335.9L7930.3-2637.4L6277.4-987L6187.2-1079.6z"/></g></g>
</svg>