<!-- Generated by IcoMoon.io -->
<svg version="1.1" xmlns="http://www.w3.org/2000/svg" width="32" height="32" viewBox="0 0 32 32">
<title>go</title>
<path d="M16 0.065c-8.765 0-15.935 7.17-15.935 15.935s7.17 15.936 15.935 15.936c8.764 0 15.935-7.172 15.935-15.935 0-8.766-7.171-15.936-15.935-15.936zM18.39 17.095c-0.1 1.295-0.598 2.589-1.494 3.486-2.39 2.29-6.573 2.29-8.963-0.1s-2.39-6.573 0.099-8.964c1.793-1.793 4.382-2.19 6.673-1.294l0.897 0.498 0.996 0.697-1.594 1.594-0.598-0.398c-1.394-0.897-3.386-0.698-4.681 0.598-1.494 1.494-1.594 4.184 0 5.776 1.494 1.594 4.183 1.594 5.578 0 0.398-0.398 0.797-0.995 0.896-1.592v-0.2h-3.586v-1.992h5.678l0.1 0.498v1.395zM25.86 16.897h-1.793v1.792h-1.793v-1.792h-1.793v-1.794h1.793v-1.793h1.793v1.793h1.793v1.794z"></path>
</svg>
