<!-- Generated by IcoMoon.io -->
<svg version="1.1" xmlns="http://www.w3.org/2000/svg" width="32" height="32" viewBox="0 0 32 32">
<title>ok</title>
<path d="M16 0c-8.837 0-16 7.163-16 16s7.163 16 16 16c8.837 0 16-7.163 16-16s-7.163-16-16-16zM16 5.686c2.938 0 5.325 2.387 5.325 5.325 0 2.934-2.387 5.322-5.325 5.322-2.936 0-5.323-2.387-5.323-5.322 0-2.936 2.387-5.325 5.323-5.325zM21.246 19.395c-0.963 0.605-2.010 1.034-3.094 1.28l2.978 2.978c0.61 0.608 0.61 1.595 0 2.205s-1.597 0.61-2.206 0l-2.923-2.925-2.925 2.925c-0.304 0.302-0.704 0.454-1.104 0.454-0.398 0-0.797-0.152-1.101-0.454-0.61-0.61-0.61-1.597-0.002-2.206l2.976-2.976c-1.083-0.246-2.128-0.677-3.091-1.28-0.728-0.459-0.947-1.424-0.488-2.152 0.458-0.728 1.421-0.95 2.15-0.491 2.179 1.371 4.986 1.371 7.168 0 0.731-0.459 1.691-0.237 2.15 0.491s0.24 1.693-0.488 2.152zM16 13.213c1.214 0 2.206-0.989 2.206-2.203 0-1.216-0.992-2.205-2.206-2.205s-2.205 0.989-2.203 2.205c0 1.214 0.989 2.203 2.203 2.203z"></path>
</svg>
