<!-- Generated by IcoMoon.io -->
<svg version="1.1" xmlns="http://www.w3.org/2000/svg" width="32" height="32" viewBox="0 0 32 32">
<title>pause</title>
<path d="M11.562 27.987c0.648 0 1.168-0.502 1.168-1.151v-21.652c0-0.64-0.52-1.171-1.168-1.171h-6.393c-0.648 0-1.165 0.531-1.165 1.171v21.652c0 0.651 0.517 1.151 1.165 1.151h6.393zM26.832 27.987c0.651 0 1.165-0.502 1.165-1.151v-21.652c0-0.64-0.52-1.171-1.165-1.171h-6.39c-0.651 0-1.162 0.531-1.162 1.171v21.652c0 0.651 0.517 1.151 1.162 1.151h6.39z"></path>
</svg>
