<!-- Generated by IcoMoon.io -->
<svg version="1.1" xmlns="http://www.w3.org/2000/svg" width="32" height="32" viewBox="0 0 32 32">
<title>radio</title>
<path d="M14.143 9.311c0.018 0.002 0.037 0.003 0.056 0.004l0.002-0.001c0.042-0.024 0.043-0.027 0.043-0.029-0.001-0.002-0.005-0.005-0.004-0.017l-0.038 0.001-0.050 0.009-0.089 0.031c0.012 0.001 0.023 0.001 0.034 0.002 0.015 0.001 0.030 0.002 0.045 0.002zM13.964 9.341l0.004-0.019-0.025 0.002-0.047 0.029-0.021 0.021 0.024 0.004 0.066-0.038zM12.328 10.198c0.077-0.050 0.127-0.084 0.348-0.177l0.178-0.050 0.099-0.025 0.061-0.051 0.008-0.066-0.032-0.011-0.094 0.027-0.017-0.030-0.010-0.033-0.054-0.013-0.102 0.005c-0.020 0.012-0.041 0.025-0.060 0.037l-0.096 0.069-0.177 0.105-0.284 0.138 0.039 0.050-0.094 0.117 0.13-0.057c0.021 0.001 0.042 0.003 0.063 0.004l0.094-0.041zM14.228 9.409l0.004-0.028c-0.042 0.023-0.070 0.044-0.094 0.095l0.046-0.014 0.044-0.053zM13.754 9.474c-0.032 0.004-0.044 0.004-0.048 0.003l-0.002-0.006-0.038 0.025 0.038 0.010 0.050-0.032zM13.241 9.57l-0.020 0.028 0.059-0.018 0.051-0.027 0.034-0.001 0.077-0.037 0.070-0.024-0.054 0.043 0.044-0.012 0.071-0.017 0.114-0.059 0.084-0.038-0.016-0.017-0.078 0.027c-0.015-0.001-0.030-0.002-0.046-0.003l-0.023-0.004c-0.092 0.032-0.18 0.074-0.271 0.107-0.013-0.001-0.026-0.002-0.038-0.002l-0.077 0.020-0.059 0.040 0.003 0.027 0.076-0.032zM14.199 9.63l0.017-0.066c-0.012-0.001-0.026-0.001-0.039-0.002l-0.043 0.040-0.039 0.045-0.006-0.040 0.056-0.067-0.026-0.032-0.074 0.056c-0.006 0.010-0.022 0.023-0.024 0.036-0.001 0.046-0.005 0.053-0.008 0.062l0.033 0.027 0.049-0.013 0.035-0.007-0.010 0.034-0.044 0.066 0.047-0.017 0.052-0.002 0.042-0.007 0.039-0.040c0.019-0.020 0.036-0.038 0.054-0.057 0.017-0.012 0.036-0.018 0.052-0.031 0.013-0.011 0.020-0.033 0.021-0.035s-0.004-0.028-0.016-0.029c-0.006-0.001-0.025 0.006-0.054 0.022l-0.005-0.041c-0.014-0-0.027-0.001-0.040-0.001-0.006 0.036-0.025 0.131-0.069 0.099zM13.291 9.6l-0.092 0.039 0.027 0.013 0.135-0.067-0.070 0.014zM13.681 9.637l0.027 0.010c-0.027 0.030-0.036 0.030-0.072 0.029-0.017-0.001-0.034-0.002-0.052-0.002l0.006-0.030 0.047-0.057-0.008-0.022c-0.011-0.001-0.022-0.001-0.033-0.002l0.004-0.025-0.011-0.007-0.075 0.016-0.099 0.045-0.165 0.068-0.062 0.043 0.050 0.006 0.027 0.017 0.054-0.004 0.065-0.015 0.048 0.018c0.015 0.001 0.030 0.002 0.044 0.002-0.018 0.009-0.043 0.019-0.082 0.019-0.017-0.001-0.034-0.002-0.050-0.003l-0.065 0.020-0.040 0.034 0.008 0.021c0.022 0.001 0.046 0.002 0.068 0.003l0.113-0.030 0.1-0.042 0.058-0.005c0.023 0.001 0.045 0.002 0.067 0.003s0.044 0.003 0.067 0.004l0.072-0.039 0.105-0.074 0.013-0.027c-0.009-0-0.019-0.001-0.028-0.001l-0.044 0.031-0.014-0.020 0.017-0.046c0.015-0.011 0.031-0.022 0.046-0.033l0.040-0.039c-0.011-0-0.023-0.001-0.034-0.001l-0.048 0.021-0.040 0.009-0.036 0.026c-0.011 0.032-0.011 0.032-0.086 0.079zM13.891 9.698c-0.012 0.012-0.026 0.014-0.035 0.014l-0.033 0.040c0.011-0.001 0.028 0.002 0.041-0.002 0-0 0.030-0.016 0.046-0.029 0.018-0.015 0.002-0.027-0.007-0.028l-0.012 0.005zM14.161 9.85l0.011-0.035-0.053 0.033c0.014 0.001 0.028 0.001 0.043 0.001zM14.402 9.406l0.006-0.028-0.045 0.002-0.037 0.033 0.032 0.004 0.045-0.010zM14.894 9.225l0.032-0.004 0.038-0.010 0.037-0.001-0.012 0.027c-0.033 0.010-0.040 0.011-0.045 0.011l-0.033-0.001-0.040 0.015 0.007 0.026-0.020 0.038 0.047 0.020 0.055-0.007 0.034 0.015 0.033-0.022h0.019c0.006-0.001 0.012-0.003 0.027-0.028l0.028-0.030 0.020 0.016c0.010-0.006 0.017-0.017 0.028-0.023 0.004-0.003 0.007-0.004 0.017-0.003s0.014 0.010 0.023 0.008c0.002-0 0.010-0.004 0.036-0.023 0.009-0.012 0.019-0.026 0.027-0.039-0.038-0.022-0.038-0.022-0.041-0.026l0.010-0.024 0.018-0.019-0.007-0.015c-0.021 0.013-0.025 0.013-0.030 0.015-0.012-0.014 0.017-0.022 0.019-0.036s-0.022-0.008-0.021-0.022c0-0.006 0.001-0.009 0.011-0.019 0.019-0.035 0.020-0.037 0.022-0.042l-0.001-0.002-0.009-0.001c-0.032 0.004-0.045 0.013-0.052 0.016l0.020 0 0.003 0.002c-0.025 0.022-0.036 0.020-0.041 0.018l-0.026-0.001c-0.026 0.008-0.028 0.009-0.027 0.021 0 0.004 0 0.007-0.027 0.022l-0.020-0.003-0.023 0.003-0.037 0.029-0.036 0.013c-0.013 0.008-0.026 0.019-0.040 0.027l0.020 0.004c-0.014 0.010-0.028 0.020-0.042 0.032l0.004 0.022zM23.242 12.172l0.016 0.022c0.010 0.009 0.020 0.016 0.028 0.025l0.018 0.019 0.009-0.005 0.007 0.001 0.005-0.004 0.005 0.001 0.014 0.012c0.016 0.013 0.031 0.025 0.048 0.036l0.003-0.017 0.009 0.004 0.008 0.003c0.006 0.003 0.012 0.012 0.021 0.008 0.010-0.003-0.001-0.026-0.001-0.026l-0.007-0.011c-0.009-0.010-0.011-0.012-0.010-0.014 0.010-0.002 0.013-0.003 0.008-0.014-0.009-0.015-0.009-0.015-0.052-0.075l-0-0.001c-0.040 0.011-0.085 0.022-0.133 0.031l0.003 0.004zM14.676 9.399l-0.053 0.027-0.026 0.024 0.060-0.001 0.041-0.008 0.046-0.008c0.009-0.009 0.019-0.020 0.027-0.030-0.017-0.001-0.034-0.001-0.050-0.001-0.015-0.001-0.031-0.001-0.046-0.002zM14.825 9.428l-0.059 0.043 0.063 0.014c0.018-0.001 0.040-0.015 0.056-0.022 0.005-0.035 0.004-0.041 0.004-0.047l-0.065 0.011zM14.83 9.172l0.042-0.034-0.006-0.009-0.020-0.001c-0.015 0.009-0.031 0.019-0.046 0.028l0.024 0.001-0.034 0.026 0.039-0.012zM14.418 9.694l-0.083 0.027-0.042 0.036 0.003 0.050c0.015 0 0.031 0.001 0.046 0.001l0.027 0.024 0.051-0.018 0.052-0.056-0.020-0.030 0.007-0.040-0.043 0.006zM14.385 9.347l0.043-0.013 0.016 0.004 0.043 0.008-0.018 0.044 0.027 0.013 0.042-0.025 0.037-0.036 0.006-0.023 0.034-0.033-0.006-0.017 0.004-0.020-0.030 0.005 0.012-0.022 0.006-0.021-0.028 0.004-0.079 0.013-0.033 0.027 0.025-0.002-0.001 0.014-0.045 0.033c-0.011-0.001-0.022-0.001-0.033-0.002l-0.035 0.031 0.026-0.003-0.012 0.021zM14.641 9.38l0.044-0.005 0.045-0.008 0.033-0.022 0.001-0.036-0.043-0.007 0.003-0.034-0.042 0.019-0.022 0.030-0.049 0.052 0.030 0.011zM14.578 9.489l-0.053 0.008-0.047 0.042 0.016 0.035 0.018 0.031 0.049 0.005 0.060-0.036 0.022-0.030-0.004-0.036c-0.017-0-0.033-0.001-0.049-0.001l-0.012-0.017zM13.921 9.426l0.051-0.001 0.049-0.024 0.024-0.027 0.026-0.003 0.057-0.025-0.024-0.001c-0.016-0.001-0.033-0.002-0.049-0.002l-0.051 0.009-0.068 0.022-0.072 0.054 0.012 0.008 0.044-0.011zM15.778 20.19h0.079c0.095 0.007 0.146-0.094 0.239-0.094 0.043 0 0.082 0.022 0.124 0.022s0.083-0.020 0.125-0.020c0.131 0.006 0.266-0.021 0.282-0.027 0.032-0.014 0.042-0.014 0.073-0.003 0.029 0.012 0.156 0.027 0.186 0.028 0.025-0.001 0.050-0.001 0.076-0.001 0.026-0.003 0.042-0.020 0.064-0.033l0.009-0.005c-0.021-0.017-0.059-0.006-0.073-0.036-0.020-0.035 0.005-0.070 0-0.104-0.138 0.030-0.146 0.032-0.222 0.033-0.025 0-0.050 0-0.075 0.001-0.038-0.008-0.070-0.033-0.11-0.036h-0.037c-0.035 0.009-0.045 0.045-0.078 0.053-0 0-0.118 0.003-0.127 0.002-0.052-0.001-0.072-0.053-0.119-0.064-0.059-0.010-0.095-0.068-0.157-0.072l-0.262-0.012c-0.043 0.001-0.043 0.001-0.143 0.018-0 0.075-0.001 0.147-0.001 0.22 0.028 0.030 0.113 0.12 0.148 0.129zM15.394 19.72c-0.049-0.072-0.196-0.215-0.292-0.229-0.025 0-0.049-0.001-0.080-0.001-0.080-0.001-0.16 0.026-0.24-0.005-0.053-0.021-0.074-0.076-0.116-0.107-0.066-0.047-0.146-0.071-0.215-0.11-0.084-0.045-0.084-0.045-0.096-0.075-0.010-0.021-0.017-0.041-0.067-0.044-0.057 0.002-0.116 0.002-0.174 0.004-0.008 0.001-0.008 0.001-0.072 0.032-0.035 0.018-0.060-0.010-0.091-0.014-0.051-0.001-0.102-0.001-0.16-0.002-0.138-0.010-0.138-0.010-0.156 0.005-0.158 0.12 0.088 0.334 0.277 0.242 0.045-0.022 0.074-0.068 0.124-0.081 0.008-0.003 0.090-0.001 0.134 0.007 0.001 0.001 0.153 0.050 0.17 0.124 0.007 0.030 0.011 0.033 0.034 0.044 0.001 0 0.141 0.051 0.178 0.047 0.049-0.005 0.062 0.007 0.087 0.045 0.012 0.017 0.076 0.105 0.192 0.113 0.187 0.001 0.375 0.002 0.563 0.003zM18.28 14.626c0.037 0.003 0.056 0.006 0.11 0.057 0.093 0.087 0.131 0.102 0.18 0.123 0.007-0.011 0.011-0.012 0.033-0.022 0.013-0.006 0.046-0.020-0.001-0.157-0.028-0.084-0.028-0.084 0.007-0.161l0.009-0.016c-0.010-0.018-0.021-0.042-0.029-0.061-0.074-0.002-0.074-0.002-0.097-0.012-0.001-0.001-0.099-0.050-0.13-0.083-0.018-0.018-0.027-0.029-0.047-0.035-0.041-0.013-0.085-0.003-0.126-0.013-0.025-0.005-0.043-0.020-0.067-0.029 0.014-0.099 0.014-0.099 0.026-0.12 0.009-0.019 0.031-0.012 0.044-0.020 0.010-0.005 0.035-0.063-0.004-0.101-0.014-0.015-0.018-0.017-0.022-0.029-0.015 0.003-0.031-0.002-0.046-0.002-0.006 0-0.059 0.017-0.069 0.034-0.013 0.020 0.007 0.035 0.009 0.053 0.004 0.024-0.002 0.048-0.002 0.072 0 0.017-0 0.021-0.004 0.027-0.001 0.001-0.069 0.127-0.18 0.25-0.030 0.033-0.052 0.059-0.066 0.092-0.010 0.023-0.015 0.053-0.010 0.087 0.002 0.027 0.019 0.047 0.023 0.073 0.153-0.001 0.305-0.004 0.457-0.006zM20.392 11.214l0.003-0.020c0.069-0.015 0.135 0.050 0.19 0.101-0.036-0.006-0.105-0.018-0.154 0.012 0.020 0.020 0.047 0.047 0.068 0.067l0.022-0.013c0.020-0.001 0.041-0.004 0.062-0.005l0.017 0.011c0.027 0.030 0.055 0.060 0.081 0.090l0.057 0.045c0.010-0.001 0.020-0.002 0.031-0.004 0.044-0.016 0.044-0.016 0.083-0.019 0.011-0.001 0.020-0.002 0.032-0.002 0.056-0.015 0.080 0.036 0.119 0.052 0.052 0.022 0.093 0.011 0.115 0.003l-0.009-0.051c-0.024-0.045-0.024-0.045-0.027-0.059-0.006-0.016-0.006-0.018 0.001-0.024l0.023-0c0.008-0.027-0.033-0.053-0.004-0.080 0.010-0.009 0.010-0.009 0.109-0.016-0.031-0.030-0.062-0.059-0.093-0.089-0.020-0.014-0.035-0.032-0.059-0.041-0.056-0.022-0.056-0.022-0.065-0.019l-0.011 0.001c-0.032-0.022-0.048-0.057-0.076-0.084-0.022-0.020-0.045-0.036-0.067-0.054-0.021 0.002-0.040 0.004-0.061 0.006-0.023 0.005-0.016 0.021-0.013 0.030 0 0 0.016 0.038-0.004 0.045l0.010 0.018c-0.038 0.005-0.071-0.016-0.106-0.014-0.052 0.004-0.050 0.027-0.050 0.043 0.001 0.017-0.005 0.018-0.016 0.021-0.017 0.001-0.037 0.003-0.056 0.004-0.013-0.014-0.029-0.028-0.042-0.043s-0.029-0.028-0.042-0.043c-0.020-0.016-0.044-0.027-0.064-0.042l-0.019 0.013c0.013 0.014 0.028 0.028 0.041 0.043-0.060-0.018-0.060-0.018-0.063-0.018-0.016 0.002-0.070 0.009-0.073 0.032-0.006 0.042 0.081 0.122 0.112 0.102zM14.91 20.177c-0 0.015 0.001 0.020 0.006 0.030 0.024-0.004 0.049 0.011 0.073 0.001 0.016-0.007 0.016-0.007 0.064-0.064l0.009-0.010c-0.010-0.024 0.008-0.054-0.019-0.074-0.019-0.014-0.043-0.007-0.064-0.014-0.023-0.011-0.041-0.029-0.064-0.037l-0.021-0.006c-0.071-0.001-0.143-0.001-0.215-0.002 0.015 0.022 0.026 0.047 0.040 0.067l0.020 0.020c0.015 0.010 0.020 0.010 0.059 0.004 0.034-0.006 0.099 0.038 0.1 0.038 0.013 0.011 0.012 0.021 0.012 0.046zM23.524 13.45c-0.010-0.011-0.012-0.015-0.025-0.027-0.028-0.027-0.027-0.034-0.026-0.037l0.006-0.005c-0.013-0.045-0.084-0.144-0.126-0.2-0.012-0.019-0.027-0.036-0.039-0.055h0.012c0.005-0.007 0.010-0.023-0.007-0.050l-0.12-0.13c-0.024-0.024-0.034-0.019-0.039-0.016-0.010-0.004-0.020-0.013-0.028-0.019l-0.009-0c-0.010 0.004-0.009 0.017-0.020 0.021-0.002 0.016 0.011 0.030 0.009 0.046-0.026-0.015-0.050-0.034-0.076-0.050l-0.029 0.011c0.033 0.045 0.060 0.093 0.095 0.137l0.006-0.001h0l-0.007 0.001-0.008 0.003-0.002 0.012-0.020 0.006-0.012 0.022c-0.011-0.004-0.020-0.014-0.029-0.019l-0.012 0.010c0.044 0.065 0.087 0.131 0.132 0.197 0.025 0.001 0.025 0.001 0.050-0.006 0.020 0.029 0.040 0.059 0.058 0.087-0.022 0.009-0.022 0.009-0.033 0.011 0 0.014 0.019 0.055 0.019 0.056 0.009 0.021 0.028 0.038 0.037 0.060l-0.007 0.012c0.021 0.073 0.092 0.105 0.101 0.089 0.019-0.028 0.020-0.032 0.056-0.007 0.010-0.006 0.010-0.006-0.007-0.103 0.042-0.005 0.084-0.011 0.125-0.016-0.010-0.014-0.019-0.027-0.027-0.041zM24.001 13.646c0.031 0.006 0.049 0.034 0.076 0.043l0.011-0.006c0.011-0.008 0.028-0.005 0.039-0.012-0.002-0.019-0.016-0.034-0.010-0.053l0.016-0.002 0.004-0.016c-0.020-0.037-0.054-0.064-0.080-0.097l-0.011-0.014c-0.014-0.022-0.014-0.022-0.014-0.033l0.017-0.007c0 0-0.019-0.031-0.035-0.057l0.023-0.005c-0.012-0.019-0.027-0.037-0.045-0.060-0.046-0.031-0.076-0.076-0.12-0.107l-0.006 0.008c0.010 0.013 0.041 0.055 0.031 0.079-0.010-0.004-0.010-0.004-0.132-0.155-0.011 0.002-0.021 0.004-0.034 0.006-0.050-0.077-0.104-0.157-0.14-0.147-0.009-0.007-0.019-0.018-0.027-0.026-0.036-0.020-0.061-0.051-0.093-0.073-0.039-0.028-0.063-0.072-0.101-0.1-0.037-0.027-0.088-0.021-0.124-0.052l-0.031-0.077 0.013-0.008c-0.007-0.009-0.013-0.018-0.025-0.029-0.021-0.027-0.022-0.064-0.044-0.092-0.030-0.035-0.059-0.069-0.088-0.106-0.037 0.006-0.075 0.012-0.114 0.017-0.093-0.163-0.106-0.18-0.123-0.186l-0.012 0.005-0.019 0.006c-0.013 0.009-0.022 0.010-0.057 0.005 0.009 0.012 0.009 0.012 0.076 0.109 0.023 0.032 0.062 0.052 0.074 0.092-0.033 0.018-0.052-0.022-0.083-0.018-0.006 0.014 0.037 0.106 0.127 0.119 0.005 0.009 0.009 0.019 0.016 0.028 0.007 0.008 0.013 0.018 0.020 0.026 0.019 0.027 0.047 0.048 0.059 0.080-0.027 0.025-0.027 0.025 0.024 0.085 0.008-0.001 0.018-0.002 0.028-0.009l0.001-0.008c0 0 0.051 0.036 0.069 0.049l0.027-0.003c-0.024-0.034-0.024-0.034-0.034-0.055 0.001 0.001 0.105 0.090 0.122 0.135l-0.009 0.004-0.003 0.017c0.020 0.025 0.020 0.025 0.051 0.053 0.022-0.003 0.043-0.006 0.065-0.008l-0.007-0.025c0.084 0.030 0.099 0.131 0.178 0.167 0.029 0.049 0.099 0.075 0.090 0.145-0.029-0.005-0.052-0.024-0.084-0.016l-0.013 0.001-0.007 0.002c0.002 0.010 0.005 0.020 0.008 0.029 0.005 0.010 0.012 0.022 0.015 0.031l-0.026 0.002c0.029 0.043 0.032 0.045 0.047 0.047 0.041-0.040 0.057-0.006 0.080 0.044l-0.015 0.004c0.003 0.019 0.011 0.035 0.014 0.052l-0.015 0.007-0.001 0h-0.001l-0.001 0h-0.002l-0.002 0.001h-0.002c0.012 0.021 0.050 0.087 0.078 0.084 0.004-0.011 0.007-0.023 0.012-0.033l0.114 0.019c0.001 0 0.072 0.068-0.018 0.075-0.011 0.017 0.005 0.033 0.001 0.050l-0.008-0.001-0.021 0.018c0.057 0.090 0.057 0.090 0.037 0.139l0.022 0.017c0.010-0.005 0.015-0.008 0.033-0.027 0.001-0.005 0.001-0.005-0.006-0.047 0.007 0.002 0.007 0.002 0.041 0.018 0.014-0.002 0.027-0.004 0.042-0.005-0.040-0.063-0.041-0.066-0.043-0.079 0.020 0.002 0.020 0.002 0.037-0.008 0.009 0.004 0.019 0.008 0.054-0.001 0.001-0.022-0.001-0.025-0.010-0.047l0.006-0.008zM17.237 14.258c-0.035 0.002-0.038 0.003-0.054-0.004-0.057-0.022-0.077-0.047-0.084-0.055-0.022-0.026-0.034-0.032-0.049-0.032s-0.030 0.006-0.046 0.004c-0.016 0.008-0.041 0.020-0.059 0.029 0.021 0.011 0.046 0.015 0.064 0.030 0.020 0.015 0.028 0.038 0.045 0.054l0.015 0.012c0.020 0.012 0.042 0.024 0.059 0.038 0.017 0.012 0.030 0.028 0.047 0.041 0.015 0.010 0.021 0.014 0.038 0.018 0.018 0.004 0.049 0.013 0.109-0.101l0.002-0.004c-0.019-0.007-0.036-0.021-0.055-0.028-0.012-0.004-0.028-0.003-0.033-0.002zM22.737 12.423l0.011-0c0.009-0.006 0.008-0.008 0.007-0.012-0.004-0.010-0.014-0.015-0.020-0.023l-0.007-0.014c-0.002-0.007-0.004-0.012-0.038-0.058l-0.005-0.007-0.009 0.020c-0.002 0.012 0.009 0.024 0.007 0.037l-0.007 0.007 0 0.003c0.003 0.009 0.010 0.015 0.014 0.024 0.005 0.015 0.006 0.031 0.015 0.045 0.006 0.013 0.017 0.023 0.024 0.034l0.025 0.012 0.003-0.015-0.006-0.014c-0.020-0.036-0.016-0.038-0.015-0.040zM21.541 23.801c-0.046 0.003-0.094 0.004-0.17 0-0.162-0.047-0.195-0.33-0.412-0.253-0.063 0.003-0.126 0.005-0.211 0.007-0.134-0.071-0.233-0.122-0.259 0.009-0.039 0.024-0.078 0.050-0.176-0.013 0.011-0.035 0.011-0.035 0.099-0.094-0.231-0.152-0.231-0.152-0.35-0.166-0.010 0.001-0.022 0.001-0.071-0.018-0.076-0.039-0.087-0.042-0.186-0.026-0.006 0.053-0.014 0.103-0.021 0.155-0.045 0.002-0.093 0.004-0.139 0.005 0.003-0.020 0.005-0.043 0.023-0.103 0.021-0.018 0.047-0.041 0.063-0.062 0.015-0.009 0.033-0.023 0.047-0.031-0.004-0.013-0.008-0.032-0.014-0.044 0 0-0.075-0.021-0.189-0.060-0.012 0.001-0.022 0.001-0.036 0.001-0.010 0-0.020 0.001-0.038 0.001-0.011 0.008-0.028 0.018-0.040 0.027-0.011 0.086-0.018 0.143-0.154 0.127 0.003-0.023 0.005-0.045 0.018-0.101 0.23-0.243 0.23-0.243 0.175-0.357-0.029 0.001-0.066 0.001-0.094 0.001 0.005-0.060 0.010-0.122 0.018-0.183-0.073-0.194-0.073-0.194-0.082-0.207-0.001 0-0.364-0.171-0.458-0.225-0.092-0.044-0.177 0.018-0.267 0.015-0.020 0-0.039 0.001-0.069 0-0.334-0.057-0.359-0.13-0.423-0.326-0.025-0.003-0.025-0.003-0.208-0.099 0-0.011 0-0.024-0.007-0.037-0.128-0.019-0.122-0.092-0.114-0.164-0.013 0.001-0.025 0.001-0.075 0.008-0.149 0.043-0.149 0.043-0.188 0.038-0.011-0.093-0.011-0.093-0.012-0.133 0.028-0.005 0.062-0.021 0.083-0.036-0.035-0.049-0.042-0.058-0.164-0.079l-0.084 0.062c-0.006 0-0.012 0-0.027-0.003-0.077-0.033-0.084-0.032-0.144-0.021-0.076 0.159-0.076 0.159-0.134 0.17-0.077-0.050-0.129-0.133-0.231-0.15-0.063 0.001-0.126 0.001-0.227-0.016-0.028-0.006-0.065-0.015-0.092-0.020 0-0.035 0.001-0.070-0.035-0.105-0.11-0.006-0.187-0.128-0.312-0.082-0.001 0.064-0.001 0.072-0.054 0.127-0.108-0.005-0.164 0.066-0.164 0.066-0.044 0.107 0.045 0.21 0.004 0.313-0.18-0.098-0.024-0.284-0.107-0.409 0.016-0.068 0.163-0.176 0.164-0.176l-0.018-0.038h-0.080c-0.111 0.024-0.128 0.031-0.123 0.153-0.070 0-0.14 0-0.24 0.010-0.050 0.041-0.156 0.128-0.362 0.124 0 0.067 0 0.136-0.017 0.221-0.057 0.041-0.059 0.043-0.139 0.043-0.056 0.095-0.060 0.123-0.066 0.166-0.139 0.093-0.171 0.171-0.177 0.208 0.023 0.013 0.057 0.029 0.084 0.035-0.005 0.143 0.163 0.318-0.015 0.428-0.026 0.212-0.026 0.212-0.071 0.258-0.030 0.001-0.070 0.004-0.1 0.006 0.007 0.035 0.016 0.083 0.021 0.118-0.032 0.017-0.073 0.039-0.104 0.058-0.002 0.021-0.004 0.047-0.006 0.068-0.1 0.021-0.155 0.032-0.152 0.196-0.049-0.001-0.099-0.001-0.142 0.026 0.016 0.092-0.017 0.186 0.013 0.278 0.012 0.006 0.030 0.016 0.042 0.021 0.060-0.023 0.060-0.023 0.141-0.013 0.001 0.023 0.002 0.045-0.012 0.098-0.047 0.020-0.099 0.020-0.143 0.048 0.003 0.072 0.003 0.072-0.101 0.137-0.015 0.079-0.015 0.079 0.057 0.167 0 0.010 0.001 0.020 0.001 0.032 0.014 0.313 0.45 0.33 0.481 0.632 0.001 0.023 0.003 0.044 0.006 0.073 0.543 0.787 0.543 0.787 0.614 0.795 0.002 0 0.254 0.048 0.531 0.371 0.027 0.001 0.067 0.001 0.096 0.001-0.005 0.095-0.007 0.19-0.010 0.284-0.007 0.028-0.010 0.066-0.007 0.094l-0.008 0.013c-0 0.008-0 0.019 0.002 0.045 0.003 0.013 0.007 0.033 0.010 0.046 0 0.005 0 0.009-0.016 0.052-0.010 0.023-0.014 0.060-0.011 0.085l-0.007 0.009c0 0.010 0 0.020 0.011 0.051 0.002 0.014 0.003 0.030 0.003 0.044l-0 0.014c-0 0.007-0.003 0.017-0.024 0.057-0.001 0.028 0.006 0.064 0.018 0.088l-0.001 0.026c-0 0.008-0.001 0.015-0.011 0.039-0.019 0.089-0.094 0.158-0.096 0.252-0.091 0.282-0.091 0.282-0.122 0.35-0 0.005-0 0.012 0.002 0.024 0.060 0.337 0.073 0.407-0.088 0.54 0.001 0.015 0.001 0.027 0.004 0.054-0.001 0.012-0.002 0.031-0.003 0.044l0.007 0.015c-0.030 0.069-0.099 0.112-0.133 0.18 0.078 0.129 0.057 0.171-0.007 0.295 0.005 0.012 0.012 0.029 0.018 0.040 0.012 0.019 0.017 0.050 0.016 0.072-0.013 0.003-0.032 0.008-0.046 0.012-0.031 0.091-0.031 0.091-0.022 0.125 0.012 0.006 0.028 0.013 0.040 0.020h0.063l0.013-0.153c0.027 0 0.051 0.001 0.077 0.001 0 0.016 0 0.034-0.012 0.066-0.013 0.007-0.027 0.018-0.038 0.027 0 0.030 0.001 0.059-0.007 0.095-0.007 0.008-0.007 0.008-0.031 0.165-0.018-0.010-0.040-0.031-0.054-0.045 0-0.007-0-0.012-0.009-0.048 0 0.003 0 0.005-0.028 0.007 0.003 0.018 0.003 0.032 0.040 0.073 0.013 0.021 0.026 0.055 0.030 0.081-0.033-0.015-0.061-0.039-0.095-0.051 0.001 0.014 0.002 0.030-0.039 0.057 0 0.014 0 0.031 0.001 0.046 0.028 0.003 0.066 0.013 0.089 0.029-0.003 0.012-0.005 0.030-0.008 0.043 0.013 0.003 0.031 0.005 0.044 0.007 0.005 0.014 0.010 0.030 0.014 0.043-0.091 0.008-0.091 0.008-0.131 0.034 0.001 0.002 0.001 0.005 0.012 0.038 0.009 0.010 0.023 0.023 0.032 0.032 0.001 0.002 0.001 0.005 0.002 0.049 0.007 0.022 0.027 0.053 0.048 0.071l-0.029 0.010 0.021 0.013c0.011 0 0.020 0 0.024 0.037 0.015 0.003 0.032 0.007 0.047 0.010l0 0.008-0.009 0.014c0.030 0.053 0.089 0.076 0.129 0.123 0.013 0.001 0.033 0.003 0.047 0.004-0 0.003-0.001 0.007 0.026 0.027 0.027 0.004 0.063 0.010 0.090 0.014 0.004 0 0.008 0 0.038 0.010 0.033 0 0.065-0.001 0.122-0.003 0.013-0.015 0.037-0.026 0.055-0.036-0.027-0.006-0.063-0.012-0.090-0.013 0.002-0.007 0.004-0.013-0.037-0.024-0.005-0.027-0.012-0.061-0.019-0.087l0.002-0.010c-0.002-0.027-0.006-0.061-0.012-0.087 0.001-0.004 0.002-0.008-0.003-0.022 0.002-0.013 0.004-0.026 0.014-0.070 0.027 0 0.054 0 0.081-0.005 0.002-0.012 0.004-0.031 0.005-0.044 0.073-0.051 0.137-0.115 0.219-0.155 0.002-0.009 0.005-0.020-0.030-0.031-0.015-0.002-0.031-0.005-0.046-0.007-0.069-0.069-0.069-0.069-0.076-0.102 0.001-0.005 0.001-0.010 0.012-0.028 0.024-0.016 0.059-0.035 0.086-0.044 0.037 0 0.075 0 0.114-0.001 0.006-0.028 0.012-0.057 0.041-0.108 0.031-0.032 0.031-0.032 0.072-0.118 0.085 0.006 0.085 0.006 0.123-0.037 0.001-0.007 0.003-0.012-0.012-0.037h-0.003l-0.001 0.001h-0.005c-0.001 0-0.001 0-0.012 0.004-0.020 0.012-0.059 0.020-0.083 0.018-0.001-0.027-0.005-0.063-0.005-0.091 0.005-0.017 0.009-0.035 0.012-0.052 0.012-0.001 0.025-0.001 0.077 0.012 0.012 0.007 0.027 0.020 0.040 0.026 0.043-0.001 0.086-0.001 0.136-0.036 0.001-0.008 0.003-0.013 0.012-0.043 0.012-0.007 0.027-0.016 0.039-0.022 0.004-0.027 0.004-0.062-0.003-0.089 0.006-0.015 0.009-0.029 0.012-0.044 0.035-0.001 0.070-0.001 0.13-0.006 0.016 0 0.030 0 0.052-0.001 0.028-0.004 0.064-0.011 0.091-0.020 0.036-0.001 0.073-0.001 0.145 0.012 0.001 0 0.182-0.122 0.263-0.191l0.037-0.040c0.007-0.019 0.013-0.040 0.022-0.061-0.010 0-0.017 0-0.047-0.005 0.005-0.012 0.008-0.027 0.021-0.068-0.031-0.037-0.031-0.037-0.105-0.087-0.002-0.012-0.005-0.030-0.007-0.043 0.033-0.001 0.065-0.001 0.098-0.002 0.363 0.060 0.363 0.060 0.512-0.071 0.414-0.365 0.414-0.365 0.418-0.365-0.019 0.022-0.038 0.053-0.053 0.076 0.037-0.002 0.529-0.351 0.519-0.52-0.005-0.094-0.009-0.182 0.434-0.43 0.044-0.001 0.089-0.003 0.132-0.004 0.020-0.007 0.020-0.007 0.16-0.1 0.112-0.004 0.22-0.009 0.342-0.037 0.012-0.024 0.034-0.052 0.056-0.070 0.049-0.012 0.049-0.012 0.409-0.43 0.021-0.007 0.021-0.007 0.16-0.26 0.003-0.009 0.006-0.018 0.030-0.052 0.066-0.088 0.093-0.132 0.117-0.199 0.004-0.013 0.008-0.028 0.017-0.070 0.004-0.013 0.006-0.031 0.007-0.043 0.007-0.022 0.013-0.045 0.020-0.092 0.020-0.059 0.036-0.119 0.097-0.186 0.001-0.001 0.308-0.251 0.391-0.328l0.275-0.316c0.076-0.106 0.076-0.106 0.095-0.172 0.029-0.341-0.020-0.366-0.075-0.395zM12.578 10.777l0.065 0.025 0.097-0.038 0.076-0.011 0.054-0.065-0.136 0.030-0.157 0.059zM13.61 9.943l-0.075-0.024c-0.019 0.010-0.044 0.024-0.062 0.035-0.002 0.036 0.005 0.043 0.008 0.047 0.002 0.002 0.005 0.007-0.012 0.063l0.067-0.032 0.073-0.060 0.002-0.028zM14.417 9.92l-0.044-0.024c-0.095 0.002-0.095 0.002-0.106 0.018-0.033 0.052-0.037 0.057-0.093 0.073-0.025 0.034-0.048 0.068-0.073 0.102-0.043 0.098-0.043 0.098-0.052 0.112l0.079-0.010 0.072-0.038 0.045-0.059 0.060 0.019 0.067-0.037 0.070-0.065c0.022-0.018 0.054-0.039 0.076-0.056-0.022-0.028-0.033-0.030-0.041-0.032-0.020-0.001-0.040-0.001-0.059-0.003zM14.050 9.93l0.004-0.032-0.054 0.002-0.044 0.044-0.022-0-0.027-0.021-0.062 0.013-0.029 0.044 0 0.050c-0.118 0.103-0.119 0.088-0.123 0.026l-0.043 0.002-0.049 0.046 0.020 0.040 0.014 0.031c0.012 0.006 0.032 0.014 0.046 0.020-0.009 0.037-0.018 0.059-0.021 0.063l-0.006 0.015c0.002 0.016 0.049 0.045 0.052 0.045 0.015-0.001 0.073-0.040 0.091-0.052l0.090-0.002 0.081-0.069 0.009-0.057-0.009-0.052-0.024-0.035c0.121-0.044 0.121-0.044 0.106-0.121zM13.34 10.007c-0.026 0.022-0.049 0.046-0.074 0.069l-0.038 0.052-0.038 0.069-0.051 0.030-0.022-0.006 0.003-0.032 0.045-0.052 0.027-0.042 0.024-0.069-0.042-0.006-0.038 0.046-0.022 0.038c-0.018-0.001-0.036-0.002-0.054-0.002l-0.041 0.033-0.054 0.007 0.052-0.038 0.064-0.045-0.033-0.006-0.022-0.024-0.052 0.003-0.059 0.044-0.028-0.010 0.044-0.028 0.060-0.057-0.009-0.014c-0.017-0.001-0.035-0.002-0.052-0.003l-0.086 0.038-0.061 0.018-0.068 0.013-0.089 0.035-0.066 0.059-0.105 0.039-0.040 0.035c0.013 0.001 0.024 0.001 0.037 0.003l-0.017 0.036 0.073-0.018 0.070-0.005-0.006 0.041-0.087 0.019-0.076 0.014-0.067 0.034 0.027 0.045c0.024 0.001 0.049 0.003 0.074 0.004l0.091-0.004c0.025 0.001 0.048 0.003 0.073 0.006 0.009 0.012 0.019 0.024 0.027 0.037-0.006 0.007-0.012 0.014-0.054 0.043l-0.119-0.012c-0.038-0.002-0.075-0.004-0.111-0.007l-0.13 0.042-0.050 0.098 0.085 0.011c0.025 0.001 0.051 0.003 0.076 0.004l-0.047 0.095 0.019 0.043c0.034 0.002 0.069 0.004 0.104 0.005h0.104l0.105-0.041 0.092-0.022 0.111-0.045 0.063-0.027 0.004 0.035 0.051-0.007 0.061 0.073 0.075 0.008 0.078-0.008 0.074-0.063-0.020-0.055 0.049-0.003 0.079-0.012 0.047-0.043-0.030-0.049-0.088-0.057v-0.080l0.076-0.076-0.011-0.050 0.081-0.099 0.021-0.065-0.033-0.040c-0.021-0.001-0.041-0.002-0.060-0.002zM13.372 9.957l0.034 0.010 0.059-0.039-0.042 0.003-0.052 0.027zM14.913 11.87l-0.1 0.047 0.020 0.123c0.040 0 0.079 0.001 0.12 0.001l0.051-0.024c0.002-0.016 0.003-0.032 0.005-0.048 0-0.028-0.004-0.057-0.003-0.086l-0.094-0.013zM15.242 9.816c0.003-0.015 0.004-0.026 0.043-0.038l0.001-0.001 0.006-0.058-0.072-0.027-0.076-0.023-0.074 0.024-0.105 0.025-0.065 0.005-0.075-0.020-0.071 0.002-0.021-0.054 0.030-0.052 0.014-0.047c-0.023-0.001-0.044-0.001-0.067-0.001-0.015 0.002-0.036 0.005-0.052 0.007-0.037 0.067-0.038 0.069-0.053 0.137l-0.068 0.058 0.004 0.045 0.030 0.047 0.092-0.007c0.018-0.008 0.043-0.020 0.060-0.027 0.041 0.064 0.041 0.064 0.125 0.054 0.036 0.001 0.073 0.001 0.11 0.002l0.056-0.015 0.033-0.026 0.022 0.030c0.169-0.008 0.169-0.008 0.173-0.042zM14.623 11.828c-0.009 0.004-0.009 0.004-0.038 0.009-0.013 0.003-0.029 0.008-0.090 0.041-0.015 0.007-0.029 0.016-0.045 0.022 0.015 0.012 0.023 0.030 0.043 0.037 0 0 0.017 0.004 0.051-0.005 0.033-0.007 0.078-0.038 0.083-0.041 0.009-0.007 0.009-0.007 0.039-0.043l0.005-0.005-0.003-0.049c-0.017 0.009-0.028 0.024-0.045 0.033zM15.361 11.042l0.091-0.020 0.050-0.073-0.035-0.078c-0.145 0.006-0.145 0.006-0.151 0.008s-0.033 0.026-0.078 0.084l0.037 0.069 0.086 0.011zM15.276 9.979c-0.031-0-0.062-0-0.093-0.001l-0.004 0.074 0.008 0.059 0.15 0.009 0.060-0.041 0.093-0.024-0.081-0.067-0.134-0.009zM29.5 14.725v-0.484c0-0.344-0.182-0.644-0.451-0.814v-1.384c0-0.090-0.058-0.167-0.139-0.198-0.003-0.052-0.006-0.104-0.008-0.155-0.006-0.091-0.021-0.188-0.031-0.283-0.076-0.625-0.212-1.257-0.43-1.877-0.070-0.22-0.148-0.437-0.232-0.654-0.302-0.76-0.699-1.498-1.18-2.179-0.479-0.682-1.037-1.312-1.644-1.869-0.605-0.559-1.26-1.046-1.928-1.459-0.671-0.412-1.355-0.751-2.020-1.026-0.167-0.067-0.332-0.139-0.496-0.196-0.165-0.059-0.327-0.116-0.487-0.173-0.163-0.053-0.322-0.1-0.478-0.15-0.078-0.023-0.156-0.047-0.232-0.069-0.079-0.020-0.154-0.041-0.232-0.060-0.15-0.039-0.3-0.078-0.447-0.115-0.147-0.032-0.29-0.063-0.431-0.093-0.28-0.066-0.547-0.105-0.798-0.15-0.469-0.074-0.885-0.127-1.233-0.158h-1.226c-0.348 0.031-0.763 0.084-1.232 0.158-0.252 0.046-0.52 0.085-0.799 0.15-0.14 0.030-0.284 0.061-0.43 0.093-0.147 0.037-0.295 0.077-0.447 0.115-0.076 0.020-0.153 0.040-0.231 0.060-0.077 0.022-0.155 0.047-0.233 0.069-0.156 0.050-0.316 0.096-0.476 0.15-0.161 0.057-0.323 0.114-0.489 0.173-0.165 0.057-0.329 0.13-0.495 0.196-0.667 0.275-1.351 0.613-2.020 1.026s-1.324 0.899-1.93 1.459c-0.606 0.557-1.164 1.188-1.643 1.869-0.482 0.681-0.878 1.42-1.18 2.179-0.085 0.216-0.161 0.433-0.232 0.652-0.219 0.62-0.355 1.253-0.429 1.878-0.011 0.095-0.025 0.192-0.031 0.283-0.003 0.052-0.006 0.103-0.010 0.155-0.080 0.031-0.136 0.107-0.136 0.198v1.384c-0.272 0.17-0.453 0.47-0.453 0.814v0.488c-1.371 0.022-2.479 2.249-2.479 4.996 0 2.748 1.109 4.975 2.48 4.997v0.269c0 0.531 0.431 0.963 0.963 0.963 0.501 0 0.909-0.385 0.955-0.874h0.762c0.354 0 0.666-0.167 0.872-0.424 0.556 1.117 1.303 2.143 2.227 3.037 2.084 2.017 4.829 3.129 7.73 3.129 3.035 0 5.868-1.2 7.981-3.375 0.811-0.837 1.473-1.78 1.978-2.793 0.205 0.258 0.518 0.426 0.874 0.426h0.762c0.046 0.489 0.453 0.874 0.955 0.874 0.532 0 0.964-0.432 0.964-0.963v-0.269c1.38 0 2.5-2.237 2.5-4.999 0-2.76-1.119-4.997-2.5-4.997zM23.716 27.2c-2.047 2.107-4.789 3.268-7.729 3.268-2.81 0-5.468-1.075-7.485-3.028-0.959-0.928-1.721-2.006-2.268-3.18 0.027-0.097 0.046-0.197 0.046-0.302v-8.685c0-0.052-0.008-0.1-0.015-0.15 0.498-1.047 1.167-2.019 1.999-2.876 0.105-0.108 0.214-0.213 0.323-0.316l0.033-0.006c0.037-0.048 0.088-0.115 0.143-0.145l0.056 0.018-0.032 0.099-0.006 0.083 0.035 0.047 0.088-0.021 0.014 0.050c0.016 0.002 0.033 0.004 0.050 0.007l-0.020 0.088 0.020 0.086c0.002 0.039 0.004 0.093 0.006 0.132 0.020-0.006 0.044-0.014 0.064-0.020l0.009 0.064-0.032 0.094 0.059 0.048-0.080 0.083 0.044 0.069-0.072 0.078 0.034 0.039 0.050 0.020-0.061 0.095-0.020 0.105-0.062 0.119-0.043 0.114 0.074 0.022-0.056 0.135 0.016 0.136-0.027 0.096 0.054 0.080 0.070 0.059 0.063 0.043-0.022 0.075 0.059 0.103 0.042 0.089-0.038 0.183c-0.021 0.048-0.042 0.096-0.063 0.144l-0.021-0.096-0.017-0.126 0.019-0.076-0.050-0.081-0.044-0.035 0.048-0.118c-0.021-0.002-0.044-0.004-0.066-0.005l-0.027-0.065-0.034-0.033-0.038-0.026-0.067 0.009-0.001 0.1 0.034 0.064 0.026 0.086 0.076 0.146-0.018 0.146-0.027 0.188-0.067 0.145-0.092 0.201c-0.030 0.075-0.059 0.152-0.088 0.228l-0.071 0.051c-0.020 0.050-0.038 0.1-0.056 0.152l0.006 0.165-0.074 0.152-0.022 0.123 0.013 0.109-0.053 0.156 0.028 0.138 0.060 0.114-0.003 0.231 0.058 0.098-0.010 0.119 0.046 0.141c0.039 0.002 0.077 0.007 0.116 0.009l0.066 0.099 0.116 0.087 0.071 0.126 0.001 0.147 0.022 0.151 0.024 0.248 0.068 0.111 0.089 0.129 0.017 0.090-0.094 0.074 0.045 0.101 0.096 0.105 0.126 0.114 0.070 0.121-0.023 0.098 0.023 0.083 0.105 0.060 0.097 0.112 0.068 0.095 0.001 0.11 0.062-0.032 0.021-0.118-0.036-0.137-0.093-0.059-0.005-0.118-0.103-0.103-0.030-0.154-0.029-0.146-0.082-0.111-0.013-0.144-0.087-0.050-0.033-0.177-0.084-0.154 0.016-0.193 0.085-0.005 0.11 0.069 0.054 0.108-0.016 0.166 0.102 0.229 0.118 0.184 0.113 0.131 0.078 0.13 0.010 0.142 0.128 0.098 0.089 0.139 0.068 0.148 0.152 0.205 0.055 0.177 0.084 0.085-0.089 0.060-0.026 0.107 0.177 0.174 0.148 0.143 0.185 0.073 0.194 0.136 0.228 0.119 0.257 0.145 0.209 0.073 0.134-0.007 0.042-0.071 0.152-0.012 0.17 0.095 0.189 0.16 0.105 0.13c0.052 0.001 0.102 0.003 0.155 0.004l0.061 0.001 0.087 0.040 0.098 0.137 0.192 0.067 0.007-0.090 0.107 0.057c0.317 0.436 0.317 0.436 0.292 0.525l0.063 0.072 0.078-0.034 0.108 0.055c0.213 0.197 0.213 0.197 0.313 0.19l0.269 0.133 0.144 0.064-0.011-0.14 0.069-0.088 0.252 0.020 0.028 0.086 0.082-0.007 0.044-0.116-0.091-0.106c-0.088 0-0.174-0.001-0.261-0.002l-0.17-0.010-0.251-0.021-0.117-0.082-0.163-0.17 0.007-0.134c-0.001-0.060-0.001-0.12-0.002-0.18l0.051-0.226c0-0.052-0-0.104-0-0.154l-0.081-0.121-0.16-0.086-0.24 0.016-0.168-0.041-0.184 0.069-0.123-0.083 0.113-0.090v-0.073c0-0.030 0-0.061 0-0.091l0.044-0.103 0.063-0.163c0.001-0.062 0.001-0.123 0.002-0.184l0.107-0.070 0.020-0.136-0.078-0.056-0.263 0.012-0.165 0.024-0.073 0.127-0.073 0.189-0.079 0.173-0.137 0.014-0.198 0.051-0.205 0.021-0.092-0.131-0.167-0.096-0.056-0.15-0.113-0.194-0.055-0.327-0.014-0.237 0.093-0.179 0.053-0.204-0.068-0.217 0.162-0.198 0.125-0.007 0.132-0.101 0.134-0.12 0.173 0.032 0.123 0.047 0.105-0.043 0.077 0.116c0.051 0.001 0.101 0.003 0.153 0.004l0.119-0.006-0.020-0.088 0.051-0.14 0.188-0.003 0.13-0.016 0.24 0.030 0.088 0.125c0.026 0.001 0.052 0.001 0.079 0.001l0.055-0.069 0.070-0.018 0.109 0.108 0.1 0.133c-0.002 0.051-0.003 0.1-0.005 0.152l0.057 0.089 0.024 0.099 0.078 0.072 0.041 0.108 0.097 0.054 0.006 0.116 0.089 0.028 0.055-0.078 0.046-0.125-0.049-0.153-0.048-0.233-0.11-0.204c0.003-0.089 0.007-0.177 0.020-0.308 0.016-0.044 0.039-0.098 0.057-0.14l0.103-0.191 0.15-0.059 0.179-0.145 0.167-0.111 0.159-0.059 0.028-0.109 0.123-0.067-0.1-0.187-0.075-0.086 0.036-0.099-0.066-0.093 0.121-0.058 0.1 0.135 0.062-0.134 0.070-0.116 0.076-0.074 0.080-0.247c0.075 0.001 0.152 0.001 0.227 0.001l0.143-0.082 0.168-0.016-0.043-0.098-0.012-0.203 0.113-0.152h0.13l0.039-0.089 0.173 0.007 0.152-0.087 0.092-0.12c0.27-0.007 0.27-0.007 0.398 0.034-0.014 0.015-0.035 0.036-0.050 0.052-0.070 0-0.142 0.001-0.216 0.004-0.035 0.027-0.082 0.061-0.116 0.088 0 0.037 0.006 0.088 0.017 0.125l0.093 0.039 0.095-0.081 0.070-0.049 0.136-0.041 0.144-0.070 0.144-0.034 0.101-0.135 0.102-0.095 0.004-0.109-0.149 0.040-0.087 0.165-0.178 0.009-0.152-0.068-0.16-0.116-0.094-0.2 0.126-0.1-0.021-0.159-0.195-0.014-0.208 0.061-0.228 0.131-0.222 0.215-0.182 0.124 0.071-0.116 0.109-0.124 0.069-0.061-0.181-0.046c0.076 0 0.152 0 0.228-0l0.050-0.107 0.121-0.098 0.147-0.009 0.056-0.12 0.118-0.045c0.063-0 0.127-0.001 0.193-0.001l0.345-0.011 0.178 0.028 0.138-0.010 0.124-0.099 0.101-0.135 0.214-0.025 0.103-0.046 0.050-0.060-0.079-0.057 0.033-0.058-0.016-0.122-0.156-0.019-0.044-0.072c-0.054 0.001-0.11 0.002-0.166 0.003l-0.12 0.074-0.077 0.059-0.079-0.027 0.018-0.087 0.143-0.051 0.174-0.045 0.066-0.071-0.116-0.006-0.124-0.054-0.156-0.039-0.104-0.082-0.118-0.082-0.054-0.074 0.060-0.014 0.013-0.054-0.116-0.126-0.134-0.139-0.191-0.24-0.065-0.108-0.1 0.143c0.006 0.040 0.010 0.081 0.014 0.122l-0.121 0.047-0.073 0.086-0.121-0.005-0.032-0.080-0.084-0.058-0.117 0.026 0.027-0.136c-0.003-0.060-0.005-0.12-0.008-0.18l-0.010-0.094-0.14-0.008-0.106-0.069-0.098-0.098-0.167-0.105-0.061 0.048-0.142-0.006-0.058-0.036c-0.053-0-0.106-0.001-0.159-0.001l-0.072 0.067 0.051 0.098-0.036 0.131 0.010 0.088 0.047 0.122c-0.030-0-0.059-0.001-0.089-0.001l-0.004 0.116-0.063 0.066 0.073 0.053 0.113 0.087 0.024 0.153c-0.004 0.059-0.007 0.119-0.011 0.179l-0.097 0.123-0.132 0.096-0.176 0.019 0.085 0.156c-0.005 0.066-0.010 0.132-0.015 0.2l0.041 0.116-0.036 0.094-0.088 0.118-0.18 0.019-0.086-0.17-0.107-0.146c0.004-0.041 0.009-0.081 0.014-0.122l-0.015-0.171 0.038-0.14-0.208-0.030-0.155-0.009-0.074-0.051-0.186-0.052-0.056-0.083-0.144-0.092-0.146-0.098-0.231 0.048-0.026-0.089-0.029-0.201-0.087-0.055-0.041-0.080 0.104-0.235 0.16-0.172 0.149-0.15 0.141-0.050 0.12-0.076-0.011-0.084-0.133-0.038-0.141-0.062 0.179 0.034 0.142 0.045 0.077-0.016 0.045-0.087 0.114 0.048 0.081-0.016 0.026-0.068 0.057-0.028 0.052-0.091-0.085-0.012-0.11-0.014-0.025-0.051-0.107-0.059 0.084 0.007 0.125 0.042 0.084 0.035 0.102-0.032 0.086-0.081-0.047-0.067c0.030 0.001 0.061 0.001 0.091 0.002l0.039 0.061-0.064 0.065-0.075 0.122c-0.014 0.051-0.027 0.102-0.040 0.155l-0.108 0.033 0.009 0.071 0.105 0.008c-0.005 0.021-0.011 0.042-0.003 0.067 0.039 0.003 0.093-0.001 0.132-0.012l0.057-0.081 0.133 0.009 0.071 0.012 0.067 0.036c0.036 0 0.072 0.001 0.108 0.001l0.025-0.088-0.103-0.024-0.030-0.111-0.123-0.012-0.078-0.087-0.084-0.023c0.004-0.021 0.010-0.041 0.015-0.062l0.079 0.018 0.047-0.044 0.001-0.049c0.033 0.001 0.066 0.001 0.098 0.002l0.052-0.071 0.105-0.068 0.042-0.059-0.037-0.063-0.021-0.104 0.084-0.014 0.039-0.075-0.044-0.076-0.072-0.040-0.087-0.059c0.038 0 0.077 0.001 0.116 0.002l0.022-0.038 0.081 0.011 0.058 0.044 0.095-0.005 0.088-0.019-0.059-0.071 0.051-0.014 0.063 0.081 0.083 0.011 0.028 0.078 0.063 0.015 0.034 0.058 0.068 0.031 0.037 0.076 0.081 0.031 0.069 0.078 0.016 0.094-0.103 0.103-0.093 0.102 0.044 0.102-0.164 0.021-0.086-0.023c-0.031 0-0.062-0-0.093-0l-0.123 0.083c-0.003 0.030-0.006 0.061-0.010 0.092l0.138 0.025 0.113-0.007 0.031-0.051 0.052-0.029 0.071 0.018 0.133 0.041 0.131 0.128 0.030 0.071 0.085 0.089h0.119l0.131 0.121 0.189 0.005 0.127 0.055 0.005-0.073-0.213-0.149-0.086-0.066-0.047-0.070 0.133 0.064 0.231 0.113 0.123 0.065c-0.005-0.036-0.011-0.072-0.016-0.108l0.051-0.095-0.114-0.058-0.043-0.146-0.147-0.050-0.182-0.178 0.050-0.049 0.047-0.044 0.237 0.163 0.094 0.107 0.097 0.016 0.005-0.124 0.106-0.046 0.005-0.049c0.026-0 0.049-0 0.075-0.001l0.020-0.054-0.026-0.081c-0.049 0.001-0.097 0.001-0.147 0.002-0.003-0.013-0.006-0.028-0.009-0.042l-0.101-0.069-0.063-0.009-0.098-0.041c-0.024 0-0.048 0-0.072 0l-0.029-0.057-0.033-0.051-0.116 0.001-0.049-0.004c-0.003-0.029-0.006-0.058-0.009-0.085 0.027-0 0.052-0 0.080-0l0.036-0.040-0.11-0.029 0.009-0.034 0.050-0.010-0.067-0.057-0.084-0.024 0.026-0.052-0.088-0.037-0.092 0.005-0.014-0.042-0.075-0.004-0.030-0.010 0.059-0.041-0.079-0.027-0.102 0.026-0.064-0.071-0.006-0.041-0.060-0.004-0.001-0.048-0.091-0.035c-0.039 0-0.079-0-0.12-0.001l-0.021 0.038-0.064 0.009-0.057-0.014-0.030 0.047-0.060 0.004 0.010-0.061 0.049-0.055-0.036-0.076-0.007-0.065c-0.034-0-0.067-0.001-0.1-0.001l-0.063 0.048-0.070 0.003-0.060 0.033-0.037 0.066 0.019 0.074-0.049 0.047 0.032 0.095-0.057 0.008-0.042-0.082 0.018-0.104 0.021-0.069 0.077-0.069 0.091-0.056c-0.031-0.001-0.061-0.001-0.091-0.002l-0.102 0.011-0.13 0.080-0.115 0.116-0.079 0.154 0.083 0.020 0.063 0.006 0.005 0.060-0.069-0.015-0.087 0.021 0.034 0.076c0.031 0.001 0.062 0.001 0.093 0.002l0.052-0.018 0.048 0.049 0.108 0.045-0.083 0.022-0.027 0.069 0.040 0.050-0.13 0.135-0.073 0.097-0.093 0.077-0.053-0.033-0.006-0.121 0.073-0.071-0.072-0.113-0.124 0.084-0.057-0.156-0.033-0.021 0.046-0.076 0.027-0.085-0.047-0.011 0.033-0.068-0.037-0.078-0.093-0.008-0.043 0.044-0.045 0.003-0.090 0.072-0.014 0.060-0.041 0.047 0.035 0.083 0.051 0.056-0.065 0.072-0.080-0.022-0.020 0.085 0.082-0.003 0.118-0.057c-0.015 0.029-0.029 0.059-0.044 0.090l-0.204 0.088-0.055 0.137-0.065-0.077 0.076-0.092c-0.021-0.001-0.042-0.001-0.063-0.002l0.044-0.087c0.019 0.001 0.037 0.001 0.056 0.002l0.053-0.124-0.091-0.077-0.084 0.087-0.096 0.037 0.067 0.1-0.094 0.053-0.065 0.072-0.246 0.001-0.082-0.061-0.074-0.019-0.054-0.080-0.116 0.052-0.164 0.056-0.036 0.089-0.118 0.137 0.049-0.167-0.063-0.067-0.148 0.023-0.235-0.043 0.039-0.046 0.125-0.036-0.045-0.090-0.083 0-0.122-0.097 0.018-0.065-0.073-0.020-0.057 0.001-0.083 0.050-0.066 0.011 0.094-0.121-0.157 0.1-0.039-0.020 0.119-0.137-0.027-0.028-0.131 0.084-0.11 0.053-0.076 0.008-0.129 0.035-0.155 0.055 0.182-0.089 0.1-0.022 0.083-0.024 0.080-0.043-0.013-0.012-0.13 0.033-0.164 0.052-0.053-0c-0.014-0.001-0.029-0.003-0.043-0.004l-0.201 0.075-0.060-0.024 0.066-0.095-0.089-0.023 0.034-0.051-0.020-0.024-0.095 0.018c1.379-0.771 2.915-1.225 4.525-1.33l-0.007 0.004 0.010 0.004 0.004 0.005-0.032 0.023 0.012 0.008c-0.012 0.014-0.012 0.014-0.011 0.022 0.020 0.002 0.033 0.017 0.053 0.018l0.038-0.025 0.023-0.014 0.031-0.003-0.035 0.018-0.037 0.025-0.020 0.027c0.078 0.001 0.078 0.001 0.119-0.027l0.025 0.005c0.014 0 0.026 0 0.040 0.001l0.034-0.022 0.022-0.019 0.013-0.014c0.013 0.001 0.014 0.001 0.044-0.014l0.021 0.005-0.018 0.002c-0.020 0.012-0.039 0.025-0.060 0.038l0.035-0.002 0.012 0.004 0.012 0.002-0.014 0.017c-0.010 0-0.022-0-0.034-0l-0.029 0.003-0.021 0.008c-0.020 0.003-0.040 0.012-0.061 0.015h-0.019l-0.023 0.004-0.015 0.024 0.020 0.004 0.007 0.015-0.004 0.025 0.047 0.010-0.025 0.005c-0.009-0.001-0.021-0.002-0.030-0.005-0.034-0.062-0.034-0.062-0.073-0.066l-0.045-0.007-0.025 0.025 0.002 0.022 0.006 0.030 0.023 0.041 0.024 0.020c0.016 0.002 0.036 0.004 0.053 0.006-0.014 0.015-0.037 0.012-0.050 0.029-0.005 0.011-0.011 0.022-0.016 0.034l-0.030-0.048-0.031-0.009-0.048 0.005-0.036 0.008-0.046 0.018c-0.008 0.011-0.015 0.021-0.022 0.031l-0.015 0.023 0.029 0.009 0.051 0.002 0.045-0.006-0.054 0.027-0.007 0.033c0.046 0.010 0.052 0.011 0.137-0.043l-0.033 0.039-0.056 0.033-0.047 0.002c-0.017-0.010-0.047-0.016-0.056-0.034-0.001-0.002-0.010-0.020-0.023-0.025-0.003-0.001-0.007-0.003-0.063 0-0.027 0.080-0.027 0.080-0.093 0.092l-0.045 0.035 0.004 0.052 0.035 0.024c0.022-0.007 0.050-0.022 0.073-0.025 0.032-0.005 0.055 0.025 0.086 0.024 0.024-0 0.036-0.026 0.059-0.028 0.012 0.015 0.012 0.015 0.091 0.011 0.014 0 0.030 0 0.044 0-0.001 0.009-0.001 0.009-0.019 0.035l0.002 0.006c0.018 0.004 0.039 0.007 0.062-0.004 0.012 0 0.023 0 0.036 0.001 0.101-0.043 0.101-0.043 0.12-0.073l-0.003-0.037-0.048 0.023-0-0.048 0.046-0.010 0.024-0.044-0.004-0.038h0.029c0.069 0.005 0.069 0.005 0.075-0.002 0.023-0.027-0.011-0.047-0.012-0.072l0.006-0.001c0.012 0 0.025 0 0.043 0.001 0.013 0.002 0.013 0.002 0.019-0 0.001-0.006 0.005-0.017-0.014-0.042-0.023-0.002-0.040-0.020-0.062-0.019l-0.032 0.019-0.027 0.016-0-0.027c0.011-0.005 0.024-0.011 0.036-0.015 0.001-0.007 0.001-0.007 0.035-0.029 0.009 0 0.021 0 0.029 0l0.010 0.020c0.051 0.010 0.051 0.010 0.099-0.025l-0.032-0.034 0.038-0.002 0.014 0.023 0.031-0.002 0.035-0.015-0.016-0.035-0.024-0.011h0.064l0.010-0.021 0.026-0.011c0.021-0.024 0.054-0.036 0.063-0.068l0.025-0.002 0.006-0.012-0.023-0.019c-0.002 0.002-0.017 0.017-0.032 0.021-0.015-0.010-0.015-0.010-0.050-0.007l-0-0.017 0.019-0.007h0.027c0.011 0 0.019 0 0.029-0.002 0.009-0.007 0.023-0.008 0.031-0.018 0.018 0 0.035-0.001 0.052-0.001 0.010 0 0.020 0.001 0.030 0.001l0.002 0.001 0.003 0.001 0.006 0.001h0.002l0.005 0.002 0.007 0.003 0.007 0.003 0.005 0.003 0.006 0.004 0.007 0.005 0.015 0.004 0.005-0h0.003l0.005 0.002 0.018 0.008 0.005 0.002 0.016 0.007 0.004 0.004h-0.013l-0.005-0.003-0.004-0.001-0.016-0.005-0.007-0.004-0.006-0.003-0.006-0.003-0.017-0.004-0.004-0.001h-0.002l-0.021-0.007-0.015-0.007-0.006-0.004-0.008-0.003-0.005-0.003-0.005-0.004-0.009 0.004-0.001 0.002-0.001 0.002 0 0.003-0.002 0.001-0.003 0.006-0.001 0.002 0.012 0.014 0.006 0.004 0.005 0.004 0.006 0.004c0.009 0.012 0.017 0.022 0.026 0.033-0.006 0-0.012 0-0.026-0.003l-0.007-0.003-0.006-0.004c-0.010-0.001-0.026-0.001-0.036-0.002l0.001 0.011-0.019 0.021-0.005 0.016-0.013 0.001-0.004 0.001h-0.004l-0.004 0.004-0.003 0.003-0.002 0.003-0.003 0.002 0.002 0.005-0.003 0.003h-0.003l-0.003 0.001-0.003 0.016 0 0.004-0.001 0.015c0.002 0 0.004 0 0.025 0.005l0.005 0.004 0.004 0.005h0.012l0.020-0.004 0.003-0.001 0.017 0.002 0.007 0.019 0.004 0.005 0.003 0.005 0.004 0.005c0.004 0.008 0.008 0.016 0.013 0.027l-0.001 0.021-0.002 0.006-0.019 0.004h-0.004l-0.026 0.007-0.009 0.006-0.023 0-0.021-0.004c-0.010-0.003-0.024 0.001-0.036 0.004l-0.001 0.008c0.001 0.002 0.001 0.005-0.004 0.018l-0.004 0.004c-0.008 0-0.018 0-0.034 0.006-0.020 0.005-0.039 0.003-0.060 0.005l-0.005 0.004-0.006 0.001-0.006 0.003-0.002 0.005 0 0.007-0.001 0.005-0.002 0.005-0.005 0.003h-0.025c-0.014 0.022-0.014 0.022 0.018 0.061 0.033 0 0.035 0.003 0.051 0.024h0.052l0.022 0.012 0.008 0.002c0.009 0.007 0.026 0.013 0.036 0.014h0.019l0.014-0.008 0.007-0.003c0.009 0 0.018 0 0.032-0.001l0.019-0.005c0.002 0 0.003 0 0.016 0.001l0.004-0.001c0.002 0.008 0.005 0.017 0.005 0.038l-0.004 0.003-0.020 0.018h-0.010l-0.007-0.004h-0.008l-0.006-0.004-0.007-0.002h-0.016c-0 0-0 0-0.012 0.002l-0.022 0.008h-0.006c-0.010-0.002-0.027-0.005-0.037-0.007h-0.008l-0.004 0.017c-0.013 0-0.023 0-0.035 0l-0.009 0.014 0.016 0.016 0.007 0.006c0.030 0.012 0.062 0.020 0.091 0.036l-0.011 0.005-0.005 0.005-0 0.007 0.005 0.006 0.020 0.008 0.005 0.007 0.006 0.006 0.004 0.008 0.007 0.004 0.007 0.003 0.006 0.004 0.023 0.010 0.008 0.003 0.010 0.008 0.027 0.006h0.012l0.005-0.005-0.005-0.007c-0.006-0.008-0.012-0.020-0.016-0.028h0.020c0.012-0 0.029 0.002 0.040 0.006l0.007 0.003 0.008 0.002 0.007 0.004 0.005-0.002-0.004-0.014 0.025-0 0.007 0.005c0.011 0.003 0.029 0.005 0.040 0.004l0.002-0.007 0.004-0.004 0.007-0.003 0.005-0.003h0.005l0.006-0.001 0.002-0.006c0.016-0.013 0.024-0.008 0.045 0.004l0.007 0.003h0.017l0.021 0.001h0.006c0.011 0.004 0.023 0.010 0.031 0.014l0.011 0.008 0.008 0.003 0.007 0.001c0.015 0 0.028-0 0.041-0l0.009 0.002c0.009 0.003 0.021 0.010 0.032 0.014l0.027 0.006h0.012l0.028 0.022 0.023 0.007c0.002-0 0.004-0 0.020 0.003l0.026 0.019c0.008 0.016 0.019 0.033 0.028 0.052l0.014 0.013 0.010 0.007 0.010 0.008 0.007 0.002h0.011l0.010 0.005 0.010 0.004 0.012 0.006 0.021 0.022 0.007 0.008c0.009 0.005 0.020 0.014 0.029 0.021l0.012 0.008 0.011 0.010 0.011 0.008c0.006 0.003 0.006 0.003 0.040 0.037 0.010 0.011 0.024 0.024 0.035 0.034l0.010 0.006 0.033 0.022c0 0.002 0.002 0.004 0.009 0.019 0.005 0.013 0.005 0.013 0.041 0.048 0.007 0.014 0.014 0.029 0.024 0.048-0.002 0.012 0.001 0.027 0.007 0.038 0.012-0 0.026-0 0.038-0.001 0.005 0.012 0.013 0.023 0.003 0.034l-0.015 0.013c0.009 0.023 0.030 0.042 0.035 0.067-0.010 0-0.021 0.001-0.030 0.001 0.005 0.012 0.010 0.024 0.020 0.039 0.016 0.019 0.020 0.022 0.057 0.027 0.007 0 0.012 0 0.037 0.005l0.020 0.004c0.028-0 0.056-0.001 0.079-0.011l-0.007-0.020c0.082-0.053 0.116 0.081 0.195 0.080h0.003l0.001-0h0.003l0.004 0.001c0.066 0.027 0.094 0.051 0.108 0.067l0.006 0.020c-0.012 0-0.023 0-0.037 0.001l-0.023-0.005-0.034 0.001h-0.004c-0.080 0.006-0.149-0.064-0.232-0.023 0.024 0.029 0.057 0.047 0.085 0.073l-0.010 0.017-0.021 0.003c-0 0-0.054 0.028 0.001 0.074 0.044 0.037 0.108 0.029 0.157 0.061l0.027-0.007c0.003-0.012 0.011-0.028 0.017-0.038 0.024-0.003 0.024-0.003 0.063-0.003-0.011-0.024-0.022-0.046-0.047-0.068-0.021 0-0.041-0.003-0.063-0.004l-0.012-0.016c-0.014-0.001-0.030-0.002-0.043-0.005l-0.001-0.020c0.013 0 0.024-0 0.048 0.001 0.049 0.022 0.049 0.022 0.1 0.029 0.011-0 0.024-0.001 0.053-0.001 0.025 0.005 0.033 0.007 0.054 0.032l0.007 0.010-0.011 0.017 0.011 0.017-0.009 0.020c0.002 0.004 0.003 0.007 0.011 0.016 0.050 0.035 0.050 0.035 0.069 0.053 0.010 0.020 0.022 0.039 0.032 0.059-0.018 0.001-0.034 0.001-0.054 0.001l-0.022-0.004c-0.006 0.010-0.012 0.025-0.015 0.036h-0.023c-0.007 0-0.012 0-0.026-0.001l-0.017-0.009-0.019 0.009c0.016 0.033 0.031 0.066 0.028 0.097-0.013-0.003-0.032-0.008-0.044-0.009-0.008 0.026-0.008 0.026-0.045 0.038l-0.007 0.017 0.009 0.019c0.001 0.004 0.003 0.009 0.011 0.020 0.046 0.052 0.14 0.046 0.165 0.124-0.015 0.003-0.030 0.013-0.038 0.025 0 0.002 0.075 0.176 0.177 0.134l0.007-0.020h0.020c0.006-0 0.014-0 0.034 0.004 0.020 0.015 0.020 0.015 0.028 0.052-0.007 0-0.014 0-0.024 0.002l-0.014 0.013c0.089 0.172 0.089 0.172 0.121 0.172 0.019-0.020 0.018-0.050 0.036-0.070 0.012-0 0.031 0.001 0.043 0.003 0.015 0.031 0.027 0.061 0.039 0.099-0.010 0.019-0.030 0.027-0.044 0.042-0.076 0.093 0.589 0.597 0.672 0.59 0.007-0 0.015-0.001 0.035-0.008 0.010-0.006 0.027-0.011 0.038-0.013l0.011-0c0.146 0.030 0.365 0.291 0.433 0.1l-0.010-0.019c-0.004-0.009-0.008-0.017-0.020-0.040-0.033-0.070 0.016-0.151-0.033-0.22-0.041-0.058-0.104-0.1-0.133-0.167l-0.004-0.020c0.009-0.007 0.027-0.014 0.040-0.016 0.007-0 0.015-0 0.036-0.007 0.013-0.001 0.029-0.007 0.041-0.013-0.039-0.064-0.039-0.064-0.018-0.097l0.020-0 0.010-0.018c-0.024-0.040-0.046-0.078-0.069-0.12 0.017-0.082-0.088-0.086-0.108-0.145 0.059-0.012 0.059-0.012 0.076-0.033-0.007-0.027-0.028-0.050-0.038-0.075 0.038-0.001 0.076-0.003 0.114-0.006-0.037-0.048-0.040-0.052-0.058-0.081 0.022-0.001 0.044-0.002 0.064-0.003 0.041 0.059 0.041 0.059 0.067 0.092 0.027-0.006 0.027-0.006 0.065-0.003 0.017-0.032 0.003-0.071 0.023-0.102l0.020-0.001c0.033-0 0.037-0.005 0.054-0.024l-0.015-0.017c-0.010-0.035-0.010-0.035 0.009-0.070-0.007-0.012-0.012-0.028-0.014-0.040l0.013-0.011c-0.010-0.023-0.010-0.023-0.025-0.060l0.018-0.017c-0.005-0.008-0.011-0.014-0.018-0.024l-0.005-0.019 0.012-0.016c-0.012-0.020-0.012-0.020-0.060-0.070l-0.002-0.004c0.002 0 0.003-0 0.022 0.001l0.007 0.004 0.005 0.002 0.005 0.001 0.016 0.007 0.006 0.002 0.019 0.011c0.141 0.041 0.141 0.041 0.189 0.027 0.015-0.032-0.002-0.063-0.003-0.095 0.010-0.006 0.025-0.010 0.039-0.011 0.007-0.008 0.020-0.017 0.033-0.020l0.006-0.019c0 0 0 0 0.012-0.011 0.004-0.044-0.046-0.072-0.039-0.118 0.023-0.001 0.046-0.003 0.075-0.011-0.013-0.048-0.025-0.059-0.043-0.073l-0.020 0.003 0.005 0.018 0.004 0.026c-0.003 0-0.005 0-0.019 0-0.039-0.011-0.068-0.042-0.108-0.047l-0.013 0.001c-0.066 0.003-0.117-0.015-0.171-0.057-0.016-0.012-0.029-0.024-0.027-0.043h0.002c0.031-0.001 0.036-0.004 0.058-0.015-0.002-0.013-0.009-0.030-0.019-0.041 0.077 0.018 0.121 0.086 0.189 0.114l0.020-0.011c-0.007-0.011-0.020-0.025-0.027-0.035 0.018-0.010 0.037-0.011 0.055-0.022-0.002-0.002-0.23-0.157-0.458-0.244l-0.005-0.020c0.071 0.035 0.071 0.035 0.088 0.036 0.004-0 0.007-0.001 0.031-0.004-0.029-0.022-0.059-0.044-0.090-0.065-0.007-0.005-0.014-0.011-0.026-0.018-0.060-0.047-0.090-0.071-0.133-0.052l0.009 0.017c-0.011 0.001-0.023 0.002-0.043-0.005-0.009-0.008-0.019-0.023-0.020-0.036-0.008-0.006-0.008-0.006-0.077-0.028l-0.009-0.013c0.013-0.001 0.027-0.002 0.043-0.003 0.022 0.014 0.043 0.029 0.065 0.044 0.012-0.001 0.027-0.002 0.043-0.009l-0.002-0.021c0.003-0 0.009-0 0.023 0.001 0.011 0.005 0.030 0.006 0.042 0.002-0.032-0.031-0.069-0.065-0.159-0.087l-0.008 0.017c-0.056-0.014-0.061-0.021-0.074-0.043 0.034 0.007 0.037 0.006 0.061-0.007l-0.021-0.024 0.021 0.007c0.005-0 0.009-0.001 0.018-0.015-0.089-0.047-0.189-0.072-0.276-0.124l-0.003-0.010 0.020-0.003c-0.026-0.013-0.051-0.027-0.089-0.046-0.099-0.042-0.21-0.059-0.307-0.107-0.005-0.002-0.008-0.004-0.019-0.014l-0.019-0.011 0.019-0.009c0.005-0 0.009-0.001 0.031-0.002 0.046 0.016 0.046 0.016 0.066 0.023l0.012 0.007c0.072 0.041 0.072 0.041 0.165 0.080l-0.004-0.008c-0.070-0.034-0.14-0.068-0.218-0.104-0.010-0.007-0.023-0.015-0.035-0.023-0.005-0.002-0.008-0.004-0.018-0.008-0.022-0.008-0.044-0.015-0.064-0.024l-0.020 0.009c-0.004 0.001-0.007 0.001-0.029 0.001-0.027-0.013-0.055-0.025-0.083-0.040l0.021 0.006 0.007-0.009c-0.001 0-0.099-0.042-0.14-0.026 0.011 0.006 0.027 0.014 0.037 0.023-0.038-0.012-0.1-0.042-0.119-0.051-0.004-0.008-0.004-0.008-0.169-0.075l0.017-0.001c-0.063-0.025-0.063-0.025-0.081-0.039l-0.003-0.004c-0.102-0.040-0.197-0.093-0.3-0.125l-0.034-0.009c1.5 0.178 2.931 0.665 4.217 1.432l-0.003 0.003c0.012 0.013 0.033 0.026 0.047 0.036l0.003 0.007c0.022 0.017 0.022 0.017 0.055 0.039l-0.004 0.001 0.028 0.022 0.012 0.001c-0.034-0.037-0.043-0.047-0.045-0.052 0.048 0.030 0.097 0.059 0.145 0.090 0.165 0.139 0.443 0.352 0.446 0.354l-0.026-0.017c0.041 0.043 0.068 0.097 0.119 0.132 0.013-0.004 0.017-0.005 0.020-0.006 0.019 0.014 0.019 0.014 0.208 0.228-0.009-0.002-0.023-0.004-0.032-0.008-0.012-0.002-0.018-0.001-0.021 0l0.047 0.042c0.018 0.015 0.039 0.028 0.059 0.043l0.001 0.014-0.007 0.009h-0.002l-0.001 0h-0.001c0.002 0.004 0.002 0.004 0.117 0.164l-0.012 0.007c0.042 0.107 0.153 0.155 0.226 0.236l-0.004 0.006 0.019 0.025c0.017 0.016 0.035 0.032 0.050 0.049l0.023-0.004c0.133-0.013 0.081 0.186 0.214 0.18 0.052 0.055 0.052 0.055 0.060 0.072 0.052-0.002 0.097-0.013 0.137-0.024-0.018-0.023-0.034-0.046-0.053-0.069l0.014-0.006-0.007-0.012c-0.015-0.017-0.033-0.035-0.048-0.052 0.009 0.003 0.037 0.008 0.151 0.123 0.048-0.014 0.086-0.027 0.12-0.042 0 0 0.001 0 0.001 0.001-0.034 0.013-0.073 0.027-0.12 0.041 0.031 0.030 0.069 0.053 0.1 0.084l0.011 0.012c0.071 0.078 0.071 0.078 0.093 0.097 0.067 0.049 0.067 0.049 0.076 0.056l0.022 0.026 0.023 0.025c0.034 0.036 0.034 0.036 0.121 0.104 0.035 0.028 0.056 0.066 0.084 0.099l0.011 0.013c0.017 0.018 0.033 0.034 0.049 0.052 0.013-0.005 0.025-0.010 0.039-0.014-0.086-0.103-0.086-0.103-0.094-0.123l0.003-0.001 0.007-0.002c0.012 0.003 0.018 0.013 0.028 0.015-0.005-0.013-0.015-0.022-0.022-0.033 0.106 0.117 0.209 0.235 0.309 0.356 0.001 0.001 0.002 0.003 0.002 0.004l-0.014 0.019 0.009 0.020-0.023 0.008c-0.029-0.026-0.032-0.028-0.081-0.090-0.016-0.012-0.019-0.011-0.023-0.010l0.009 0.024c-0.014 0.012-0.018 0.014-0.022 0.015 0.007 0.027 0.007 0.027 0.058 0.092l-0.015 0.004c-0.032-0.012-0.032-0.012-0.085-0.074l-0.003 0.008-0.014 0.004c-0.014-0.016-0.026-0.032-0.038-0.047-0.012-0.011-0.024-0.026-0.032-0.038-0.004-0.019 0.007-0.021 0.016-0.024 0.005 0.002 0.005 0.002 0.066 0.037 0.001-0.047-0.129-0.191-0.184-0.251-0.015-0.012-0.019-0.012-0.023-0.009-0.009 0.025-0.009 0.025 0.031 0.083l-0.004 0.007-0 0c-0.025-0.020-0.025-0.020-0.080-0.098-0.023-0.027-0.035-0.039-0.047-0.053l-0.023 0.001c-0.116-0.138-0.116-0.138-0.185-0.202 0.001 0.059 0.081 0.084 0.066 0.149 0.009 0.012 0.024 0.027 0.034 0.038 0.017 0.019 0.023 0.023 0.026 0.028 0.081 0.097 0.153 0.204 0.244 0.294 0.010 0.013 0.017 0.022 0.023 0.031 0.016 0.021 0.030 0.041 0.046 0.062 0.030 0.035 0.064 0.064 0.094 0.1 0.020 0.025 0.034 0.043 0.047 0.062l-0.011 0.003-0.016 0.019-0.014 0.004c-0.013-0.002-0.033-0.001-0.047 0.002-0.001 0.014 0.005 0.033 0.010 0.045l-0.013 0.023c0.042 0.072 0.042 0.072 0.050 0.096l-0.026 0-0.009 0.002-0.009 0.002c-0.007 0.024 0.007 0.042 0.019 0.060l0.039 0.024c0.022 0.031 0.044 0.060 0.067 0.091-0.025 0.027-0.025 0.027-0 0.135-0.003 0.018-0.007 0.019-0.010 0.019l-0.024 0.006c0.025 0.058 0.062 0.116 0.1 0.174-0.015 0.004-0.033 0.013-0.045 0.022 0.011 0.042 0.027 0.071 0.046 0.1-0.016 0.002-0.030 0.005-0.046 0.007l-0.019-0.012c-0.015 0.003-0.036 0.002-0.049-0.001-0.005-0.009-0.011-0.020-0.019-0.029s-0.027-0.020-0.043-0.020c0.012 0.033 0.030 0.063 0.049 0.093 0.027 0.013 0.045 0.052 0.061 0.078l0.022 0.029c0.009 0.012 0.015 0.024 0.022 0.037-0.071 0.029-0.149-0.034-0.15-0.035-0.010 0.010-0.028 0.020-0.041 0.025-0.016 0.034-0.024 0.053 0.027 0.105l0.014-0.002c0.055 0.060 0.085 0.054 0.099 0.050l0.019-0.003c0.055 0.043 0.104 0.089 0.158 0.133 0.029 0.052 0.057 0.106 0.085 0.159 0.208 0.247 0.208 0.247 0.279 0.525-0.004 0.014-0.011 0.035-0.014 0.050-0.021 0.015-0.027 0.016-0.032 0.016-0.057-0.030-0.123-0.034-0.171-0.079-0.061 0.002-0.109 0.007-0.155 0.014-0.076-0.007-0.076-0.007-0.099-0.027h-0.014l-0.008 0.020c0.006 0.014 0.012 0.033 0.016 0.048-0.024 0.015-0.053 0.020-0.082 0.023l0.005 0.033c0.085 0.1 0.088 0.241 0.182 0.338 0.030 0.074 0.055 0.137 0.077 0.2 0.028 0.096 0.015 0.203 0.073 0.292 0.008 0.012 0.019 0.027 0.025 0.041 0.006 0.010 0.009 0.020 0.012 0.033l0.010 0.033c-0.005 0.044-0.001 0.062 0.036 0.156 0.022 0.009 0.040 0.007 0.057 0.005 0.014-0.008 0.032-0.015 0.048-0.016 0.017 0.015 0.030 0.037 0.052 0.047 0.015-0.006 0.031-0.019 0.041-0.030 0.032 0.019 0.062 0.037 0.094 0.056 0.030 0.037 0.043 0.085 0.079 0.117 0-0.013-0-0.028-0.001-0.041l-0.018-0.006 0.012-0.018c0.105-0.012 0.027-0.164 0.133-0.175 0.057-0.071 0.048-0.18 0.14-0.231-0.015-0.037-0.027-0.073-0.042-0.109-0.076-0.131-0.076-0.131-0.105-0.283-0.003-0.015-0.007-0.036-0.010-0.052 0.007-0.012 0.021-0.025 0.034-0.033-0.012-0.062-0.012-0.062 0.035-0.135 0.014-0.001 0.033-0.007 0.045-0.014-0.011-0.033-0.026-0.065-0.039-0.097-0.004-0.011-0.008-0.022-0.013-0.032-0.087-0.169-0.131-0.254-0.022-0.219l0.002-0.001h0.001l0.001-0h0l0.001-0h0.001l0.001-0c0.022 0.014 0.040 0.032 0.063 0.043 0.027-0.002 0.031-0.003 0.037-0.004l0.013-0.021c-0.020-0.035-0.020-0.035-0.041-0.118 0.012-0.014 0.016-0.015 0.019-0.015l0.020-0.016c-0.007-0.060-0.007-0.063-0.017-0.094 0.156 0.037 0.15 0.201 0.246 0.285 0.027 0.025 0.029 0.027 0.056 0.074 0.035 0.035 0.104 0.105 0.177 0.192v0.858c-0.018 0.016-0.035 0.034-0.047 0.054-0.069-0.097-0.069-0.097-0.137-0.108-0.016 0.054-0.056 0.101-0.055 0.161-0.045 0.007-0.088 0.014-0.133 0.040 0.015 0.133 0.015 0.133-0.002 0.18-0.017 0.001-0.042 0.002-0.061 0.003-0.011 0.012-0.025 0.030-0.039 0.043l-0.014 0.002c-0.018-0.003-0.043-0.007-0.059-0.009-0 0-0.001 0-0.015 0.002-0.081 0.019-0.106 0.006-0.159-0.048-0.012-0.006-0.031-0.013-0.043-0.018-0.008 0.105 0.031 0.204 0.045 0.307-0.035 0.010-0.084 0.016-0.122 0.015 0.026 0.093 0.049 0.188 0.073 0.282-0.046 0.005-0.091 0.012-0.128 0.069 0.021 0.152 0.035 0.304 0.060 0.456 0.007 0.040 0.014 0.082 0.021 0.122-0.038 0.004-0.076 0.008-0.115 0.012 0.013 0.11-0.048 0.204-0.068 0.306-0.288 0.18-0.037 0.534-0.259 0.738l-0.021 0.010c-0.016 0.004-0.040 0.010-0.056 0.014 0.003 0.028 0.003 0.028-0.103 0.54 0.003 0.042 0.004 0.084 0.005 0.127 0.066 0.008 0.131 0.005 0.195 0.012 0.007 0.019 0.016 0.042 0.026 0.060-0.040 0.126-0.040 0.126-0.042 0.594-0 0.024-0 0.049 0 0.119-0.019 0.076-0.019 0.076-0.095 0.152 0.003 0.082 0.025 0.163 0.033 0.246-0.001 0.022-0.003 0.047-0.005 0.071-0.006 0.158 0.022 0.194 0.142 0.346 0.017 0.001 0.042 0.003 0.060 0.004 0.028 0.058 0.027 0.123 0.047 0.183 0.020 0.002 0.044 0.005 0.063 0.007-0.037 0.297-0.037 0.297 0.198 0.433-0.005 0.060-0.014 0.121-0.020 0.18 0.088 0.075 0.127 0.198 0.254 0.234 0.037-0.049 0.059-0.109 0.090-0.163 0.037-0.003 0.086-0.010 0.121-0.015l0.020-0.005c0.035-0.006 0.086-0.005 0.121 0.007 0.006 0.017 0.017 0.041 0.023 0.058 0.098-0.014 0.14-0.106 0.202-0.173v2.157c0 0.106 0.020 0.206 0.047 0.303-0.501 1.072-1.181 2.065-2.030 2.939zM15.554 8.989c0.004-0 0.009-0 0.013-0l-0 0.001c-0.007 0.001-0.010 0-0.013-0.001zM16.152 8.982c0.005 0 0.009 0 0.013 0l0.004 0.003 0.007 0.004 0.005 0.003 0.026 0.020 0.005 0.005-0.027-0.007c-0.002-0.001-0.004-0.002-0.019-0.012l-0.011-0.012-0.003-0.004zM16.218 8.984c0.009 0 0.019 0 0.028 0.001l0.002 0.001 0.007 0.004 0.026 0.012 0.009 0.005h-0.006l-0.005-0.001-0.005-0.001-0.008-0.003-0.010-0.004-0.007-0.003-0.005-0.002-0.010-0.003-0.011-0.003-0.006-0.003zM16.346 8.987c0.006 0 0.012 0 0.018 0l0.008 0.004-0.015-0.002-0.007-0.002-0.003 0-0.001-0zM16.978 9.024c0.008 0.001 0.015 0.001 0.023 0.002 0.034 0.013 0.068 0.025 0.1 0.040-0.042-0.010-0.082-0.026-0.123-0.042zM17.209 9.049c0.022 0.003 0.044 0.005 0.066 0.008-0.013 0.001-0.024 0.002-0.036 0.003-0.009-0.003-0.020-0.007-0.030-0.011zM25.253 14.489l0.022-0.010c0.135 0.148 0.22 0.244 0.278 0.315 0.055 0.107 0.109 0.215 0.161 0.324-0.001 0.003-0.001 0.006-0.001 0.008-0.002-0.002-0.004-0.004-0.005-0.007-0.058-0.018-0.22-0.259-0.232-0.276l-0.011-0.005c-0.022-0.036-0.022-0.036-0.054-0.1l-0.024-0.001c-0.022-0.020-0.037-0.047-0.051-0.074l-0.011-0.033-0.005-0.025-0.008-0.015c-0.021-0.033-0.045-0.064-0.061-0.101zM28.224 11.83c-0.119 0-0.214 0.096-0.214 0.213v1.392c-0.238 0.156-0.396 0.417-0.425 0.716h-0.764c-0.394 0-0.739 0.204-0.939 0.511-0.549-1.067-1.272-2.050-2.159-2.909-2.084-2.016-4.828-3.126-7.729-3.126-3.036 0-5.87 1.198-7.982 3.375-0.776 0.8-1.418 1.696-1.914 2.66-0.2-0.307-0.545-0.51-0.939-0.51h-0.764c-0.029-0.3-0.187-0.56-0.426-0.716v-1.392c0-0.117-0.095-0.213-0.214-0.213h-0.092c0.004-0.027 0.008-0.053 0.011-0.080 0.013-0.089 0.033-0.17 0.049-0.256 0.137-0.68 0.358-1.38 0.691-2.025 0.329-0.649 0.747-1.261 1.246-1.8s1.068-1.008 1.671-1.406c0.604-0.397 1.242-0.722 1.882-0.981 0.64-0.261 1.283-0.458 1.9-0.609 0.619-0.152 1.212-0.261 1.766-0.332 0.553-0.078 1.064-0.114 1.517-0.142 0.367-0.018 0.695-0.028 0.98-0.031h1.226c0.285 0.003 0.613 0.013 0.98 0.031 0.452 0.028 0.965 0.065 1.516 0.142 0.554 0.071 1.148 0.179 1.767 0.332 0.617 0.151 1.26 0.348 1.901 0.609 0.639 0.26 1.276 0.584 1.881 0.981 0.603 0.397 1.171 0.868 1.67 1.406s0.919 1.151 1.247 1.8c0.333 0.646 0.555 1.346 0.69 2.025 0.017 0.086 0.035 0.167 0.050 0.256 0.004 0.026 0.007 0.053 0.011 0.080h-0.091z"></path>
</svg>
