<!-- Generated by IcoMoon.io -->
<svg version="1.1" xmlns="http://www.w3.org/2000/svg" width="32" height="32" viewBox="0 0 32 32">
<title>refresh</title>
<path d="M29.408 19.856c-0.711 6.197-5.73 11.18-11.927 11.878-0.503 0.054-1.024 0.085-1.522 0.085-6.616 0-12.338-4.762-13.38-11.393-0.157-0.881 0.108-1.759 0.662-2.426 0.583-0.667 1.425-1.050 2.308-1.050 1.499 0 2.767 1.055 2.996 2.539 0.621 3.82 3.992 6.528 7.879 6.264 3.743-0.236 6.747-3.224 6.99-6.96 0.136-2.067-0.716-4.046-2.105-5.571-1.068-1.137-1.458-1.887-4.025-2.221v2.909c0 1.037-1.001 1.653-1.869 1.094l-9.45-6.218c-0.791-0.511-0.75-1.666 0.038-2.177l9.391-6.22c0.868-0.57 1.889 0.054 1.889 1.096v3.368c2.567 0.401 6.469 1.982 8.649 4.475 2.583 2.919 3.902 6.652 3.476 10.528z"></path>
</svg>
