<!-- Generated by IcoMoon.io -->
<svg version="1.1" xmlns="http://www.w3.org/2000/svg" width="32" height="32" viewBox="0 0 32 32">
<title>search</title>
<path d="M20.471 0.148c-6.364 0-11.537 5.162-11.537 11.54 0 2.136 0.623 4.099 1.631 5.815l-9.434 9.442c-1.131 1.115-1.131 2.949 0 4.064 0.557 0.568 1.301 0.843 2.040 0.843 0.741 0 1.472-0.275 2.040-0.843l9.434-9.428c1.716 1.002 3.693 1.631 5.826 1.631 6.367 0 11.529-5.159 11.529-11.529 0-6.373-5.162-11.534-11.529-11.534zM20.471 17.443c-3.185 0-5.771-2.581-5.771-5.758 0-3.185 2.584-5.769 5.771-5.769 3.174 0 5.763 2.584 5.763 5.769-0.006 3.177-2.589 5.758-5.763 5.758z"></path>
</svg>
