<!-- Generated by IcoMoon.io -->
<svg version="1.1" xmlns="http://www.w3.org/2000/svg" width="32" height="32" viewBox="0 0 32 32">
<title>settings</title>
<path d="M32 19.205v-6.394l-4.312-0.279c-0.257-0.815-0.574-1.595-0.957-2.326l2.842-3.255-4.518-4.51-3.248 2.857c-0.734-0.399-1.519-0.724-2.331-0.968l-0.269-4.325h-6.384l-0.295 4.325c-0.815 0.241-1.597 0.566-2.331 0.968l-3.25-2.857-4.518 4.51 2.864 3.255c-0.386 0.729-0.721 1.511-0.955 2.326l-4.337 0.279v6.394l4.337 0.272c0.234 0.81 0.569 1.592 0.958 2.331l-2.864 3.255 4.515 4.51 3.25-2.857c0.734 0.394 1.516 0.721 2.331 0.955l0.295 4.325h6.384l0.267-4.325c0.818-0.234 1.6-0.561 2.334-0.955l3.25 2.857 4.515-4.51-2.844-3.255c0.389-0.739 0.699-1.521 0.957-2.331l4.315-0.272zM16.012 21.345c-2.953 0-5.338-2.387-5.338-5.343 0-2.941 2.382-5.325 5.338-5.325s5.338 2.384 5.338 5.325c0 2.956-2.384 5.343-5.338 5.343z"></path>
</svg>
