<!-- Generated by IcoMoon.io -->
<svg version="1.1" xmlns="http://www.w3.org/2000/svg" width="32" height="32" viewBox="0 0 32 32">
<title>tw</title>
<path d="M16 0c-8.837 0-16 7.163-16 16s7.163 16 16 16c8.837 0 16-7.163 16-16s-7.163-16-16-16zM23.893 13.478c0.006 0.166 0.011 0.328 0.011 0.494 0 5.053-3.846 10.883-10.883 10.883-2.16 0-4.17-0.634-5.861-1.718 0.298 0.035 0.603 0.053 0.912 0.053 1.792 0 3.442-0.61 4.75-1.637-1.674-0.030-3.086-1.136-3.574-2.654 0.235 0.043 0.474 0.067 0.72 0.067 0.349 0 0.733-0.045 1.054-0.134-1.75-0.354-3.022-1.899-3.022-3.75v-0.050c0 0.29 1.059 0.459 1.686 0.482-1.026-0.688-1.723-1.858-1.723-3.184 0-0.701 0.178-1.36 0.507-1.923 1.886 2.314 4.698 3.837 7.875 3.997-0.066-0.28-0.101-0.573-0.101-0.872 0-2.11 1.709-3.826 3.824-3.826 1.099 0 2.093 0.464 2.79 1.21 0.87-0.171 1.69-0.493 2.429-0.928-0.286 0.893-0.893 1.64-1.683 2.114 0.774-0.091 1.512-0.298 2.197-0.602-0.514 0.766-1.163 1.44-1.909 1.979z"></path>
</svg>
