<!-- Generated by IcoMoon.io -->
<svg version="1.1" xmlns="http://www.w3.org/2000/svg" width="32" height="32" viewBox="0 0 32 32">
<title>vk</title>
<path d="M16 0c-8.837 0-16 7.163-16 16s7.163 16 16 16 16-7.163 16-16-7.163-16-16-16zM25.166 23.018l-2.803 0.038c0 0-0.603 0.12-1.397-0.427-1.053-0.718-2.040-2.592-2.813-2.347-0.782 0.246-0.755 1.933-0.755 1.933s0.003 0.050-0.173 0.24c-0.195 0.214-0.574-0.054-0.574-0.054h-1.256c0 0-2.771 0.475-5.211-2.066-2.661-2.77-5.011-8.114-5.011-8.114s-0.134-0.48 0.011-0.653c0.166-0.198 0.618-0.368 0.618-0.368h3c0 0 0.283 0.254 0.486 0.403 0.168 0.123 0.261 0.454 0.261 0.454s0.485 1.277 1.126 2.387c1.254 2.166 1.838 2.667 2.264 2.437 0.622-0.341 0.435-3.051 0.435-3.051s0.011-0.982-0.312-1.422c-0.251-0.342-0.725-0.44-0.933-0.469-0.168-0.021 0.109-0.413 0.467-0.587 0.541-0.266 1.494-0.28 2.622-0.269 0.878 0.010 1.131 0.066 1.474 0.147 1.035 0.25 0.683 1.216 0.683 3.528 0 0.742-0.133 1.784 0.402 2.131 0.229 0.149 0.79 0.024 2.197-2.366 0.669-1.13 1.168-2.462 1.168-2.462s0.109-0.237 0.278-0.339c0.174-0.102 0.41-0.070 0.41-0.070l3.16-0.021c0 0 0.947-0.114 1.102 0.314 0.16 0.45-0.357 1.501-1.646 3.221-2.118 2.826-2.354 2.562-0.597 4.192 1.682 1.562 2.032 2.32 2.088 2.416 0.696 1.154-0.771 1.245-0.771 1.245z"></path>
</svg>
