<!-- Generated by IcoMoon.io -->
<svg version="1.1" xmlns="http://www.w3.org/2000/svg" width="32" height="32" viewBox="0 0 32 32">
<title>web-search</title>
<path d="M21.253 23.34c-3.247 2.46-6.82 3.34-10.753 2.513-3.12-0.66-5.647-2.313-7.553-4.867-3.827-5.14-3.24-12.373 1.327-16.78 4.733-4.56 11.867-4.893 17.013-0.787 5.24 4.187 6.493 12.3 1.9 18.007 0.1 0.067 0.233 0.12 0.32 0.213 2.54 2.533 5.073 5.073 7.613 7.607 0.36 0.36 0.56 0.767 0.493 1.28-0.073 0.553-0.373 0.947-0.893 1.147-0.533 0.207-1.027 0.1-1.46-0.267-0.107-0.093-0.207-0.2-0.307-0.3-2.48-2.48-4.967-4.96-7.447-7.447-0.087-0.093-0.16-0.207-0.253-0.32zM23.18 13.36c0.013-5.473-4.44-9.94-9.927-9.96-5.493-0.020-9.973 4.433-9.987 9.933s4.433 9.967 9.94 9.987c5.48 0.013 9.96-4.46 9.973-9.96z"></path>
<path d="M21.133 13.253c0.24 3.473-2.947 8.053-8.48 7.767-3.76-0.2-7.427-3.48-7.4-7.847 0.020-4.227 3.58-7.8 8.020-7.793 4.273 0.007 8.060 3.647 7.86 7.873zM15.567 13.467c0 0 0 0 0 0-0.6 0.007-1.2 0.007-1.8 0-0.193 0-0.293 0.053-0.293 0.26-0.020 0.933-0.047 1.867-0.067 2.793-0.007 0.227 0.093 0.307 0.327 0.307 1.020-0.007 2.047 0.007 3.067-0.013 0.113 0 0.293-0.12 0.333-0.227 0.34-0.907 0.48-1.853 0.547-2.813 0.020-0.26-0.1-0.32-0.333-0.313-0.6 0.013-1.193 0.007-1.78 0.007zM12.753 13.473c-1.28 0-2.567 0-3.847 0-0.187 0-0.253 0.093-0.24 0.273 0.027 0.273 0.020 0.553 0.073 0.82 0.133 0.667 0.28 1.333 0.433 1.993 0.053 0.22 0.193 0.313 0.44 0.307 0.673-0.013 1.353-0.007 2.033-0.007 0.353 0 0.707 0 1.107 0 0-1.127 0-2.233 0-3.387zM13.493 9.667c0 1.047 0 2.047 0 3.080 0.247 0.020 0.473 0.047 0.707 0.047 0.88 0.007 1.753 0 2.633 0 0.8 0 0.847-0.007 0.76-0.8-0.080-0.707-0.267-1.4-0.427-2.1-0.020-0.093-0.167-0.227-0.253-0.227-1.133 0-2.253 0-3.42 0zM12.8 12.8c0-0.993-0.007-1.94 0-2.88 0-0.253-0.16-0.253-0.333-0.253-0.98 0-1.953 0.007-2.933-0.007-0.22 0-0.353 0.080-0.393 0.273-0.167 0.86-0.327 1.727-0.48 2.593-0.040 0.2 0.073 0.28 0.267 0.28 0.413 0 0.82 0 1.233 0 0.873-0.007 1.733-0.007 2.64-0.007zM17.8 16.813c0.54 0 0.993-0.007 1.447 0 0.227 0.007 0.367-0.1 0.473-0.293 0.493-0.867 0.687-1.827 0.813-2.8 0.027-0.193-0.067-0.313-0.247-0.313-0.567 0.007-1.127 0.033-1.693 0.047-0.207 0.007-0.247 0.113-0.267 0.293-0.080 0.653-0.16 1.313-0.267 1.967-0.060 0.36-0.167 0.7-0.26 1.1zM9.56 9c0.96 0 1.853 0 2.753 0 0.467 0 0.54-0.067 0.547-0.533 0.013-0.68 0.007-1.353 0.007-2.033 0-0.353-0.1-0.427-0.44-0.327-0.813 0.24-1.453 0.74-1.987 1.387-0.36 0.44-0.7 0.907-0.88 1.507zM13.4 17.513c0 0.787 0 1.527 0 2.267 0 0.62 0.053 0.66 0.667 0.48 0.033-0.007 0.060-0.027 0.093-0.040 1.1-0.407 1.793-1.253 2.367-2.22 0.080-0.133 0.12-0.287 0.207-0.493-1.127 0.007-2.18 0.007-3.333 0.007zM8.553 16.86c-0.060-0.227-0.12-0.4-0.153-0.58-0.14-0.82-0.273-1.647-0.4-2.473-0.033-0.2-0.080-0.34-0.32-0.34-0.487 0.007-0.973 0.007-1.46 0.007-0.207 0-0.3 0.1-0.287 0.307 0.073 1.027 0.34 1.993 0.873 2.88 0.053 0.087 0.167 0.187 0.253 0.193 0.48 0.013 0.967 0.007 1.493 0.007zM16.767 8.96c-0.087-0.187-0.153-0.327-0.227-0.467-0.593-1.1-1.393-1.98-2.627-2.387-0.267-0.087-0.367 0.013-0.373 0.24-0.027 0.753-0.040 1.507-0.067 2.26-0.007 0.28 0.113 0.4 0.4 0.393 0.853-0.013 1.707 0 2.56-0.007 0.093 0.007 0.187-0.013 0.333-0.033zM17.873 9.66c0.147 0.98 0.28 1.9 0.413 2.827 0.027 0.187 0.12 0.307 0.313 0.313 0.547 0.007 1.087 0.013 1.633-0.007 0.1-0.007 0.273-0.173 0.267-0.253-0.093-0.953-0.353-1.86-0.827-2.693-0.067-0.12-0.253-0.227-0.387-0.233-0.487-0.013-0.973 0.027-1.413 0.047zM8.453 9.7c-0.033-0.007-0.127-0.033-0.22-0.033-0.353-0.007-0.713-0.027-1.067 0.007-0.153 0.013-0.36 0.107-0.427 0.233-0.46 0.8-0.747 1.66-0.793 2.593-0.013 0.273 0.133 0.373 0.393 0.367 0.347-0.007 0.687 0.013 1.033-0.013 0.74-0.053 0.573-0.007 0.693-0.687 0.133-0.8 0.253-1.6 0.387-2.467zM12.733 20.24c0-0.713 0-1.413 0-2.107 0-0.633 0-0.633-0.64-0.6-0.080 0.007-0.153 0-0.233 0-0.633 0-1.267 0-1.9 0-0.12 0-0.247 0.040-0.38 0.060 0.407 0.867 1.013 1.727 1.987 2.36 0.347 0.227 0.7 0.393 1.167 0.287zM16.073 6.58c0.493 0.787 0.967 1.533 1.44 2.273 0.033 0.053 0.093 0.127 0.147 0.127 0.467 0.007 0.933 0.007 1.473 0.007-0.853-1.107-1.827-1.887-3.060-2.407zM19.087 17.54c-0.567-0.1-1.047-0.107-1.52 0.007-0.047 0.013-0.087 0.067-0.113 0.107-0.46 0.733-0.92 1.473-1.393 2.233 1.167-0.52 2.153-1.267 3.027-2.347zM7.34 8.933c0.013 0.040 0.020 0.080 0.033 0.12 0.373 0 0.747 0.027 1.12-0.013 0.133-0.013 0.287-0.153 0.373-0.273 0.28-0.42 0.527-0.867 0.793-1.293 0.153-0.24 0.327-0.453 0.493-0.687-0.020-0.020-0.047-0.047-0.067-0.067-1.107 0.5-2.013 1.247-2.747 2.213zM7.5 17.54c-0.020 0.040-0.040 0.073-0.060 0.113 0.767 0.86 1.573 1.667 2.727 2.093-0.44-0.7-0.853-1.36-1.28-2.013-0.060-0.087-0.193-0.173-0.293-0.18-0.367-0.027-0.727-0.013-1.093-0.013z"></path>
</svg>
