<svg xmlns="http://www.w3.org/2000/svg" viewBox="0 0 2560 1440"><path d="M2573.4 1191.6h-44.1c.1 0 .2.7.5-.2 3.1-2.8 12.6-3.2 11.7-6.6-9.3 4.6-20.2-4.4-20.7-12.9-5.4-.8-9.7 4.1-15.8-.3-8.2-3.9-3.5-9.9-7.7-14.5-5-3-8.5 1.7-13.9-3.2-4.2-3.5 2.2-8.8-3.5-11.9-5.3 3.7-9.9 10.8-17.2 4.2-3-4.1 6.1-10.2-2.6-13.3l-8.5 11.8c-4.2-3.1-7.1.5-11.5-3.7-5.9-3.5-.6-9-7.2-12.5-3.8.7-2.7 6.3-7.6 10.5-4-.3-8.2-.7-12.3-1.7l3.3-9.3 4.9-11.8 2.9-5.5 2.9-4.4 10.2-15 6.4-8.2 4-5.5 1.2-2.4.2-1.4.5-1.7.8-.8 3.7-.9 2.2-.7 2.9-1.8 2.9-2.8 6.7-6.1 3.2-3.8 6.6-6.4 1.6-.7 2-.9 1.5-1.4.7-1.6 2.6-4.3 1.7-1.7 3.4-4.5 3.6-3.1 2.6-2.8 1.3-2.3-.1-2.6.3-1 .7-.7 2-.8.4-.3v-1.4l.3-1 2.7-2.8 10.4-11.4 1.1-1.9.2-2.5-.3-2.4-1.2-3.4-1.5-2.2-3-3 2.6-4 3.5-4.1 6.1-5.7 2.4-2.8 5.5-8.9 2.6-5.1 2.8-7.4 1-2.1 4.1-4.6 3.3-4.2 1.2-2.3.3-2.4-.5-1.2-1-.7h-.7l-1.5.4-1.1.9-1.6 2.2-6.6 6.2-.1.3h-.4l-1.1-.8-.7-1.3-.3-1.9 1.5-4.3 3.4-14.3.3-3-.6-1.1-1-.9-2.4-.6 2-5 .1-1.1-.5-1.6-.8-.9-1.5-.7-1.4-.2-1.5.7-.8 1.1-5 10-1.5 2.9-1 2.8-1.4 4-.6 1.1-.4.1-.6-2.1-.6-2.8-.6-6.6.4-7.1-.2-2.1-.7-1.1-1.2-.8-1.2-.1-1.7.2-1 1.1-.7 2.1-1.6 14-1.1 13.1-4.4-.5-.3-5.1h-.7l-.8 4.9-1.3 1.1-.9-.3-4.7-9.2-1.8-2-2-1.4-2.6-.9-1.5-.2-2 .6-.6.7v.7l.7 1.4 1.8 2.7 1.1 2.9 1.1 5.1 2.1 6.6 1.8 7.8 3.2 5.6 2.2 6.2.3 2.4-2 4-2.9 4.6-1.3 1.1-2.3 1.3-3.1 4.4-7.1 8-5.6 8.2-.4.7-3.1.6-4.9 2.3-3.6 2.3-10.7 8.6-10.5 7.8-16.2 13.2-6.1 5.9-7.9 9-3.7 6.1-5 8-1.1 1.6-5.8 2.9-2.9 2.1-1.6 1.8-1.7 2.9-.7 2.8-.4 4.4-4.4 3.4-1 1.3-.8 1.4-5.1 1.5-2.8 2.1-1.8 1.6h-.8l-2.4-1.3-2.1-.2-6.3.2-.1-.6-14.5.2-3.9 1.6-5.1 1.4-1.5.3h-.7l-.8.1-1.1.1-.4-.2.7-2.5 1.3-1.5 3.9-.1 2.2-.6 2.6-2 1.6-2 1.8-3.9 2-4.2.7-1.8.2-2.5.5-2.2.2-1.2-.2-1.3-1.3-1.4.2-1.3.8-1.5.3-1.3.8-5.4 1.4-3 .4-1.7.1-2.4.3-1.1 1.4-3.8.2-1.7-.6-2.6-1-6.3-.6-1.9-.1-1.3-.3-1.1-1.8-2.7-2.2-2-1.5-1.7-3.5-3.2-1.6-1.5-.7-1.1-4.1-3.6-5.9-2.1-2.4-.5-2.1-.5-2.8-.2-.7-.2-.3.3-1-.3-.9-.8-.9-.4-1.2-.8-1.1-.3-1.1-.1-.8-.3-4.4-.6-.8-.1-1.4.1-.8.4-2-4.1-1-4.5-1.3 4-.3 2.2.2 1.6.2.9-.8 1.7-1.4 1h-2.4l-1.9-.3-.9-.1-1.2.3-3.9.4-2.4.7-3.5 1.4-2.2 1.6-2 2.1-1 .9-.6.8-3.7 3.4-2.7 3.3-.4 1.7-.6 1.2-.6 2-1 2.2-.1 4.4-.1 2.2.4 1.1-.1 4.4-.2.7-.4 3.9-.6 2.5v1.6l-.3 2.5-.4 7.3-.1 10.9.4 1.6.1.8.4 1.4 1 1.1 2.2.8 1.9-.1.4.2.6 4.4.8 4.9 1 3.3-.1 1.8-.4.5-3-.2-.7-.3-6.6-.6-1.1.1h-1.5l-1 .1h-.7l-.9.1-4.1-1.5-.7-2h-1l-1.9 2.1-1.6.9-1-2.5-1.2-2.9-1.2-1.5-1.7-1-15.2-25.3.2-1.4-.9-2.1-2.6-8.1-2.1-8-19-29-17.2-17.2-7.1-7.7-3.3-3.1-9.3-4.9-4.5-1.9-7.5-2.2-1-.8-1.4-2.2-2.2-2.3-4.7-8.2-3.9-6.6-2.8-5.3-1.2-1.6-.7-.2-.2.1-.3-.4-1.5-3.3-4.7-11.6-.7-2.2v-3.4l1.2-2.8 8.5-10.4 2.3-4.6 5-7.8.8-1.8 1.8-2.9 3.7-3.9.2-.9-.3-.7-1.5-.9-2-.3-1.5.1-2.2.7-1.8 1.2-4.9 5.5-4.4 5-2.3 1.9-1.2.3h-1.3l-2.3-.6-2.2-2.1-1.4-2.2-.2-3.6.5-8-.1-1.8-.1-7-.5-2-.8-1.2-1.8-.6-1.7.2-1.2.7-.7 1.2-.4 2.3-.5 5.9-2.2 7.6-1 .5-2.2.4-.1-.3-1.8-5.6-2.9-5.6-3.8-7.9-1.2-1.3-1.7-1-1.4-.1-1.9.6-.9.7-.4 1.1.1 1.3 1.1 3 3.4 7.4 2.2 6.5c-1.8-3.7-5.2-6.6-8.6-8.9l-.5-1.2-.8-1.2-1.1-.8-1.8-.1-1 .4c-2.8-1.3-4.9-2-4.9-2-4.8-5.8-25.4-1.6-25.4-1.6s-20.3 9.1-26.7 16.9c-6.4 7.8-10.4 36.1-10.4 36.1s-3.7 2.8-4.3 2.7c-.2 0-1.2.8-2.4 1.9-.6-3.6-1.3-7.2-1.3-7.2s-5.8-8.4-4.2-13.1c1.6-4.8-5.9-16.1-5.9-16.1s-3.6-14.9-1.2-18.1-5.5-21.7-5.8-26.6c0-.7-.3-2.1-.7-4l6.1-12.5 6-11.3 2.8-3.7.2-1.4-.9-1.4-3.2-2.2-8.6-4.1.7-4 2.8-11.5 4.9-12.9 6.1-10.9 3-6.4 3.1-9.2 1.9-3.6 3-3.4 11.8-9.4-1-2.7-3.1-1.5v-.9l2.9-1.3v-1.3l-1.2.6-2.7 2.3-3.3 2.8-5.9 3.5-4 1.6-1.9.2-1.1-.5-2.7-2 .5-2.4 3.6-10.2 2.7-8.7.4-3.2-.6-1.5-1.4-1.2-2.1-.6-2.2.5-1.2 1.1-.7 1.6-1.4 5.3-2.9 7.5-2 4-.8 2.2-.4.2-.2-.2-1.9-1.3-.2-.8 2.1-11.5 2.8-9.5.8-3.7-.1-1.6-.7-1.2-1.2-.7-2.5-.5-1.6.3-1.8 1.5-1.2 1.8-3.1 10.2-2.4 7.2-1.2 7.1-.1.4-2.7-.1-1.4-.5-4-8.9-1.1-4.5c3.4-3.3 6.6-6.7 6.4-7.4-.3-1.3.4-7.2 1.2-7.1.7 0 4.4-7.5 3.8-7.8-.6-.2-.8-5.3-.8-5.3l3.5-3.6 1.7-6.6-.9-5.9s0-2.8.6-7-.8-7.7-.8-7.7c-4.3-2.9-5.9 2.2-5.9 2.2-1.2.3-2.4 9.4-2 11 .4 1.7-2.4 6.9-2.4 6.9l-1-4.7s-1.6-9-1.6-13.4-2-7.3-5.1-6.8c-3 .5-2.7 6.1-2.3 7.9.5 1.8.3 11 .3 11 2.1 6.9-5 10.9-3.8 9.6 1.1-1.3-.4-5.4-.4-5.4l-4.2-10.5s-4.7-9.3-8.3-8.3c-3.7 1-2.4 10.2-2.4 10.2l2.8 11.2s-.5 1.7-1.3 7.3-5.6 5-5.6 5l-2.5-2.9c0 4.1-3.3 8.7-3.3 8.7-5.3 5.4-5.7 17.3-7.6 18.2s-1.9 11.3-.2 14.9c.3.6.6 1.4.8 2.5l-.9.7-.2.9.4 1 1.6 1.2c1.1 5.9 1.8 13.8.5 17.3-1.9 5.2 1.2 19.6-.2 22.5-1.4 2.8 3.2 26.5 3.2 26.5-9.7 2.2-4.1 20.3-4.1 20.3-3.7 4.5-2.6 12.2-1 18.1l-.9.5-10.3 7.4-3.4 4.4-7.2 10.5-17.6 23.6-17.7 38.2-1 10-1.7 10.2-.7 2.7.5 1.6-13.7 33.1-1.8 1.5-1.1 2.2-.9 4-.7 3.8-1.9.4-2.3.2-1.2.1-.8.1h-5.1l-1.1-6.2-.8-6.2h-1.2l-1.8 6.4-1.3 3.1-7.9 3.3-.8 1.2-3.6 1.1-.6-.3-.5-2 .6-4.2.1-6-.1-5.4.4-.3 2.3-.2 2.5-1.3 1-1.5.3-1.7-.1-1 .2-2-2.1-13.1-1.8-8.7-.8-3-.3-2-1.3-2.9-1.3-4.7-.3-.8-1-5.3.2-1.4-.5-2.7-.9-5.3-1.6-2.5-1.1-2.4-1-1.4-.8-2-3.9-3.5-5.1-3.5-.8-.8-1.4-.9-2.8-2.1-2.9-1.6-4.4.5-3.1 1.1h-4.8l-1.5-2.1-1.1-1.3-2.5-1.2-2.9.3-1.6.6-1-.2.2-.4.2-.6-.3.1-1.6.7v-3.7l-1.2-3.4h-2.4l-1 3.3-1.7 1.9-.9 1.1-5.2 1.9-.9.7-1.3.4-1.3.6-1.3 1.1-1 .7-1 1.1-1.2.5-.5-.3-.8.3-3.4.7-2.5 1-2.8 1-6.7 3.5-4.2 5-.7 1.4-1.7 2-3.7 4.5-1.5 2.3-2.2 2.8-1.7 3.6-.2 1.3-1.2 1.6-1.8 2.4v7.8l1.1 3.3 1.2 2 2.7 4.4.7 1.2.7 2.9.9 2 2.2 3.4 1.9 6.4.7 1.5 1.3 1.7.4 1.5-1.3 1.9v1.6l.4 1.4 1 2.6.7 2.9 1.1 2.1 3.2 4.7 2.8 4.5 2.3 2.2 3.5 2 2.7.4 4.8-.5 1.8 1.6 1.3 2.9-.5-.5-1.3-.7h-.9l-.8.8-1.8.3-6.5-.6-6.9-1.2-19.4 2.3v.7l-5.8.8-1.5.5-2.2 2-.8.1-2.3-1.6-3.6-2-6.4-1-1.2-1.6-1.5-1.4-5.9-3.4-1.3-5.2-1.4-3.3-2.6-3.2-2.3-1.9-3.8-2-7.5-2.5-1.6-1.7-7.6-8.9-5.6-6.8-11.2-9.6-3.9-2.9c2.1-15.1 3.8-33.8 3.9-50.1 14.9 6.2 25.5 10.5 25.5 10.5-3.2-2.1-13.1-6.9-25.5-12.8.1-11.9-.7-22.5-2.6-29.1-2.3-8-4.1-17.4-5.5-27.1 5.6.6 11 1.3 16.3 2-5.4-.9-10.9-1.9-16.5-2.9-.9-5.4-1.6-10.7-2.4-16 33.1-1.6 65-3.8 63.2-4-1.4-.2-32.6 1.1-63.5 2.1-2.1-13.1-4.5-25.6-8.4-35.3-8.8-21.5-31.3-69-35.7-78.5-4.4-9.5-11.8-21.9-11.8-21.9s3.7-28.3 3-41.2c-.6-13-1.5-23.3-3.5-24.8-1.9-1.6-5-3.9-7.3-3.5-2.3.4-1.9-1.9-4.3 1.3-2.2 3.1-7.1 19.9-7.1 19.9l-3.1-1.8s9.2-17.7 7.3-23.9c-1.9-6.2-3.6-7.8-6.3-7.8-2.7 0-6.7 1.5-6.8 3-.1 1.4-2.7 25.5-2.7 25.5l.7-25s-3.2-7.5-8.1-5.8c-4.4 1.6-8 16.7-7.9 19-.6-1.4-4-8.2-4.9-19.9-1.2-13.6-2.6-13.4-1.7-18.7 1-5.3 2.1-11.5-2.1-12.2-4.3-.6-6.7-.4-9.3 5.6-2.6 5.9.6 41.4-1.2 44.7-1.8 3.4-3.7 2.5-5.3 3.6-1.6 1.2-2.2 4.2-1.7 7.1.6 3 6.7 11.5 5.6 24s-.2 12 2.5 18.5c2.7 6.4 1.9 7.4 7.9 13.7 5.9 6.3 12 8.3 12 8.3s19.2 42.1 18.5 42.5c-.6.5 4.4 11.5 4.4 11.5s12.1 36.1 12.9 40.8c.6 3.2 8.7 19 13 32.5-5.5 0-9.1-.1-10.1-.4-6.1-2-70-16.5-82.9-22.3-13-5.7-35.9-21.1-35.9-21.1-5.8-4.2-28.5-6.7-44-3.7-15.5 2.9-28.9 16.7-43.6 39.6s-10 35.4-14.6 51.4c-4.7 16.3 16.6 64.1 8.5 88.6-9.8 29.6-21 50-28 61.6-13.6 5-27 10-36.4 13.4l-.1-3.7-1.2-13.6-4-22.4-4-17.8-.4-4.6c2.2-8.8 4.1-16.3 5.1-18.9.4-1.2 1-3 1.6-5.1l.7-1.1 13.6-19.7 3.8-7.4 4.3-10.8 4.5-19 3.8-11.1 1.9-3.6 6.8-8.4 9.9-12.2 6.2-10.2 11.4-24.2 12.8-22.5 6.7-13.7 5.9-11.3 3.4-7 1.6-6.3 2.8-9 12-20.5 9.3-14.7 4.1-4.8.5-1.9-1.1-1.9-4.2-3.2-11.2-6.3 1.4-5.3 5-15.2 7.9-16.9 9.5-14 4.7-8.3 5.1-12.1 3-4.7 4.4-4.4 16.8-11.6 4.3-3.4 1.3-2 .1-1.2-1.3-1.9-2.6-2-3 .5-4.6 2.8-5.1 3.4-8.6 4.1-5.6 1.8-2.6.1-1.4-.7-3.5-3 .9-3.2 5.9-13.4 4.6-11.5.9-4.2-.7-2.1-1.8-1.7-2.8-1-3 .4-1.7 1.4-1.2 2.1-2.5 7-4.7 9.8-3.1 5.1-1.3 2.9-.6.3-.3-.3-2.4-2-.3-1.1 4-15.3 4.7-12.6 1.5-5v-2.1l-.8-1.7-1.6-1.1-3.2-.8-2.3.3-2.6 1.8-1.7 2.3-5.2 13.5-4 9.5-2.3 9.5-.2.5-3.7-.3-1.8-.7-4.4-12.4-1.6-9.6-1-3.8-1.3-1.9-2-1-2.8-.1-2.8 1.2-1.2 2.1-.6 3.4.7 11.6.1 2.9 1.8 13.1.1 5.9-2.1 3.8-3.4 3.7-3.7 1.3-2.2.2-2.1-.4-4-2.9-7.9-7.8-8.8-8.6-3.2-2.4-3.6-1.5h-2.4l-3.2 1.4-2.4 2-.4 1.4.5 1.5 6.5 6.1 3.4 4.6 1.6 2.9 9.2 12.3 4.3 7.3 15.3 16.2 2.2 4.5.5 5.5-.8 3.8-6.3 19.6-2 5.7-.5.8-.4-.2-1.1.4-1.7 2.7-3.9 9-5.6 11.2-6.8 14-3.3 4-2 3.7-1.5 1.4-12.1 4.4-7.1 3.5-14.7 9-5 5.6-10.8 13.4-26.2 30.2-27.8 49.8-2.4 13.4-3.4 13.5-1.2 3.6.5 2.2-21.9 43.4-2.6 1.9-1.7 2.8-1.7 5.3-1.3 5.1-2.6.3-3.1 1.5-1.6 1.5h-1.1l-6.8-5.9-1.5-5.5h-1.2l-1.6 3.9-2.4 2.1-1.8.9-10.8 2.1-1.1.8-4.9.8-.8-.6-.4-2.9 1.2-5.6.8-8.1.4-7.3.6-.4 3.1-.1 3.5-1.6 1.5-1.9.5-2.4v-1.3l.4-2.7-1.4-17.8-1.5-11.9-.8-4.1-.2-2.6-1.4-4-1.2-6.4-.3-1.1-.8-7.2.5-1.9-.4-3.7-.6-7.3-1.9-3.5-1.2-3.3-1.2-1.9-.9-2.7-4.8-5.1-6.5-5.2-1-1.2-1.8-1.4-3.6-3.2-3.8-2.4-5.8-1.9-4.1-1-6.4-.4-2-.8-1.5-.8-3.2-1.2-4 .4-2.2.7-1.3-.3.3-.6.3-.8h-.4l-2.2.7h-.1l-1.6.2-3.3-.2-1.4-.6-2.3-.1-1.2.2-7.2 1.5-1.2.6-1.8.2-1.8.6-1.9 1.4-1.4.8-1.5 1.4-1.7.5-.6-.4-1.2.3-4.6.7-3.4 1-3.9 1.1-9.4 4.1-6.2 6.4-1 1.8-2.5 2.6-5.4 5.7-2.2 2.9-3.3 3.6-2.7 4.7-.4 1.7-.1 2.1-.8 3.2-.2 3.1-.1-1-.6-.9-1-.6-1.9-.4-1.3.3-1.4 1.1-.9 1.4-2.4 7.9-1.9 5.6-.9 5.5-.1.3-2.1-.1-1.1-.4-3.1-6.9-1.3-5.5-.7-2.1-.8-1.1-1.2-.5h-1.6l-1.6.8-.6 1.3-.2 2 .9 6.6.2 1.7 1.6 7.4.3 3.4-1 2.2-1.8 2.3-2.1.9-1.2.2-1.2-.2-2.4-1.5-4.9-4.2-5.4-4.6-1.9-.9-2.1-.3-1.4.1-1.8.6-1.3 1-.2.7.3.8 4 3.2 2.1 2.5 1.1 1.6 5.8 6.7 2.8 4 9.5 8.7 1.5 2.5.5 3.1-.3 2.2-2.7 11.4-.9 3.3-.2.4-.2-.1-.6.2-.8 1.6-1.9 5.3-2.7 6.7-.4.9-5.4-1.3-1.5-2.2-1.9-2-7.7-5.2-1.2-7.2-1.5-4.5-3.2-4.6-2.9-2.7-5-3.1-9.9-4.1-2-2.5-9.2-12.7-6.9-9.7-14.1-14-10.8-9.1-28.2-19.9-18.2-11.6-18.6-13.1-6.2-3.4-8.4-3.3-5.1-.6-.7-1-10.2-12.9-11.8-10.3-5.6-7-4-1.9-2.3-1.6-5.3-7.3-3.7-6.4.2-3.9 2.9-10.4 4.5-9.6 2.1-13.1 2.7-11.1 1.2-8.5 1.5-4.9 2.7-4.7 1.1-2.3-.2-1.1-1.1-1-3.3-.7-2.4.5-4.1 1.8-3 2.8-2.7 4.1-6.6 16.8-1.3 2.7-1.9 2.6-1.3.6-1.2.1-.6-.2-7.9-7.3-3.4-21.5-4.4-22.9-1.4-3.3-1.8-1.7-2.8-.2-1.9.2-1.9 1.4-1.1 2-.1 3.4 1.5 11.6-.2 11-.6 4.6-.8 3.6-.8-.1-1.1-1.7-2.8-6.5-2.1-4.5-2.8-4.7-9.3-15.9-1.5-1.6-2.6-.9-2.3.5-2.4 1.3-1.2 1.6-.6 2.7.4 1.8 4 7.9-3.9 1.3-1.5 1.6-.8 1.9.8 4.9 7.2 23.2 3 6.9-.2 3.2-1 2.2-1.7 1.5h-.6l-.2-.4-11.7-9.5-2.9-3.5-1.8-1.4-2.5-.5-1.1.2-1.5 1.2-.7 2 .7 3.8 2.2 3.6 5.9 6.5 7.3 7.1 1.8 3.4 5.6 11.9 4.8 8 10.2 14 4.2 4.3 10.8 8.7 6.2 6.3 4.7 6.2-4.5 5.3-2.2 3.8-1.6 5.8-.2 4 .6 4.1 2 3 18.4 17.7 3.8 3.5c-.3 2.7-1 6.1-3.2 9.7-4.1 6.5-3.5 6.5-3.8 10.7-.3 4.2-1 4.5.5 9.4s4.2 7.5 4.2 7.5-1.3 27.6-1.8 27.7c-.4.1-.8 7.3-.8 7.3s-3.5 22.6-4.3 25.3c-.6 1.9-.6 12.5-2 20.9-3-1.4-4.9-2.4-5.3-2.8-2.7-2.6-33.3-26.6-38.7-32.9-5.4-6.4-13.5-20.5-13.5-20.5-1.9-3.8-13.5-10.8-22.8-13.1-9.2-2.3-20.3 1.7-34.6 10.5-14.3 8.7-15.3 16.7-22.2 24.1-7.1 7.6-8.8 38.9-20 50.1-13.5 13.5-25.3 21.8-32.3 26.3-8.8-.7-17.5-1.4-23.5-1.9.2-4 .8-14.4.4-22 6.4-8 17.1-20.6 19.7-23.1 3.5-3.3 16.4-18.9 21-20.7 4.6-1.9 10.5-5.6 12.4-9.2 2-3.7 3.7-8.7 2.7-10.7s-2.7-1.5-3.5-1.7c-.8-.1-2.3.5-4.2 2.6-2 2-.5 4.1-2.6 4.9-2.2.8-3.7.6-3.9-.6s0-2.9.7-4.9c.6-2-2.8-3.2-.3-6.5 2.4-3.3 4.7-6.4 5.8-7.7 1-1.3 3.6-.9 3-2.3s1.8-11.6-1.6-13.2c-1.6-.8-3.1-.6-3.8.3-1.3 1.7-.8 2.1-2 3.6-1.3 1.5-2 2.2-4.9 1.1-2.9-1.1-1.4-2.6-5.2-2.2-3.8.3-5.7 1.6-7.3 3.1s-2.7 1.6-6.3 5.6c0 0-3.3 5.8-2.7 11.3s1.7 10.2-2 14.3c-2.7 3-12.4 10.6-20.3 17.3-2-11.4-4.7-25.3-6.3-27.9-2.7-4.5-6.7-26.5-6.7-28.4-.1-1.9.3-8.6.3-8.6s4.5-37.9-1.9-45.9c0 0-6.4-3-6.6 3.1 0 0-3.1-6.6-6.6-3.5 0 0-5.3-7.5-8.3-2.3 0 0-.2 6.8-1.4 7.3-1.3.5-2.3-8.9-2.3-8.9l.6-12.6s.9-8.7-1.4-8c0 0-4.2-2.1-5.1 2.9l-.8 13s0 6.4.3 7c.2.6-.4 5.8.2 6.4s-4.1 5.4-6.2 6.9c-2.1 1.6-3.6 3.5-3.5 5.8l.4 8.8s.2 4.1.9 5.5c.7 1.4 6.2 7.6 7.9 7.9 1.7.4 6.2 5.9 6.2 5.9s3.7 2.7 3.5 5c-.1 2.3.5 6.4.5 6.4s1.8 2 2.1 4 2 11.4 2 11.4 1.4 12.7 1.2 14.5c-.1 1.9 1.2 14.1 1.6 18.8.4 4.7-.3 18.7 1 23.6.3 1.1.6 3.3 1 6.1-6.1 5.3-11.6 10.1-13.9 12.4-5.1 5.2-8.3 9.3-11.2 13.1-2.9 3.9-6.1 6.5-3 12.2 2.6 4.8 16.9 18.2 23 23.6-1.1 1.7-2.3 2.7-3.4 4.6-1.2 2.1-1.4 3.7-1.2 7 .2 3.3 0 4.1-1.1 5.6-1 1.5-1.9 1.3-1.8 4.6.1 3.3-4.7 7.8-4.5 10.9.1 3.1-2 4.6-1.5 6.4s-2.2 3.8-2.3 5.6c-.1 1.8-2.6 4.8-2.5 7.5.1 2.7 1.2 2.8.2 3.9s-13.7 3.4-17.2-3.9-1.7-9.4-1.7-9.4 8.5-3.4 10.2-9.8c1.7-6.4 1.1-9.1 1.1-9.1s-.3-3.1-2.4-.3c0 0 11.8-64.1-31.7-58.4 0 0-17.2-6.7-30.1 7.5.1-1.1.2-2.1.4-3.1-.5-6.9-1.7-13.7-1.4-20.6.2-6.1 1.3-11.7 3.6-16.9-1.9-10.9-4.3-21-6.7-22.4 0 0 3.5-18.7 1.2-32.2l.2-26.4s-2-13.5-7.7-2c0 0-2.6 14-2 19.2 0 0-.9 5.5-4.2.5 0 0-3.9-22.5-6.9-28.9 0 0-7.2-17.8-9.6-5.2-1.8 9.4 4.7 21.6 4.9 27.5 0 0 2.5 13-1.7 5.4 0 0-5-12.2-5.4-14.8 0 0-1.6-4.8-3.7-10.1 0 0-7.9-22.4-12.4-10.1 0 0 6.3 22.1 8.5 31.2 0 0-8.5-21.9-11.3-13 0 0 3.8 22.1 9.1 28.4 0 0 6.4 23.4 5.1 27.1 0 0-2.9 4.3-2.6 11.7 0 0-5 10.4-4.3 17.3.7 7-2.4 8.9-2.3 12.6 0 0-5.8 25.3-10.4 50.9-.1 0-.1-.1-.2-.2-6.5-4.8-1.6-1.2-1.6-1.2s-1.6-1.6-1.9-3.3c-.3-1.7 6.1-10.1 2.3-11.2-3.8-1.1-6.8-5.8-5.5-10.9s-3.2-4.5-5-3.8c-1.7.8-2.4-4.1-2.4-4.1l-1.9.1s1.1-23.9.7-35.7c-.5-11.8-7-29.3-6.6-43.1.4-13.8 1.4-34.7.1-34.9-1.3-.2 4.9-4.5 2.5-8s-2.4-3.6-2.4-3.6 14.4-19.2 14.5-23.3-3.5-5.9-2.9-9.3c.6-3.4 1.2-15.2 2.4-16 1.2-.8-6.8-5.3-7.7 8.7-.9 14-.1 10.1-1.1 10.2-1 0-3.7-4.9-6.4-6.8-2.6-1.8-2.4-8.8-2.8-10.5-.4-1.7-.5-14.9-.7-16.9-.2-1.9-.7-14.4-3.7-13.9-3 .6-4 2.1-3.9 2.8 0 .7 1.4 10.1 1.5 11.5.1 1.5-1.6 5.1-.8 5.8.8.7 1.3 6.9 1.3 6.9l-1.1 2.9s-1.5 1.2-3.1 1.3c-1.5.1-2.2-5-2.2-5l-3.4-8.6-2.6-8.3-4.4-7.6s-1.4-3.3-3.6-2.3c-2.2 1.1-4.7 1.6-3.6 5.7l4.4 7.8s1.5 5.2 1.8 6.2c.3.9 2 4.7 2 4.7l2.7 5 .4 3.6s1.1 1.9-.4 1.9c-1.5.1-11.7-20.5-13-25.6 0 0-6.6-.7-5.4 3.6 1.2 4.3 2.8 6.4 2.8 6.4l1.7 5.5s3.5 5.4 3.5 6.1c0 .7 1.7 3.6 2 4.2.3.7 1.2 3.1 1.2 3.1s-.6 3.2-3.6-.6c-2.9-3.7-7.1-8.9-7.1-8.9s-3.9-4.7-4.9-4.2-2.4 3-2.4 3l2 4.7s1.1 2.6 3 4 1.6 2.4 3 4.2c1.3 1.9 1.6 2.4 2.9 3.5 1.3 1.2 2.7 3 3 4 .3.9.1 2.9 1.4 3.6 1.3.7 2.4 2.6 2.8 5.4.4 2.9 2.3 6.9 2.4 8.4.1 1.4 2.5 5.2 2.6 6.4 0 1.2 1.1 3.1 1.2 4 0 1-.9 3.6-.9 3.6s.7 3.8.9 4.5c.3.7 1.6 2.6 1.6 2.6l1.1 1.9s-4 37.8-2.7 44.2c0 0-1.2 8-.7 13s2.4 14.4 1.7 17.3c-.6 2.9-.3 10.4.3 14 .7 3.6 3.2 15.3 3.2 16.5 0 1.2 1.6 3.1 1.5 6.2-.1 3.1.2 5.8.8 6.5.6.7-.7 2.4-.7 2.4s-7.5 2.9-6.7 8.7c.7 5.8 3.4 9.3 2.2 11.2-1.2 2-2.4 9.7-1 12.1s.5 4.8-.7 7-.3 5.3 1.7 9.6 4.1 6.4 4.2 9 2 5.2 1.9 9.1-.1 9.9 0 12.1c0 1 .7 5.2 1.2 9.5.1.9.3 4.7.5 10.2-5.5 1.7-13.3 6.4-13.8 10.6 0 0-4.8 2.8-11.9 3.3 0 0-30.3 2.4-36.1 10.3 0 0-10.1-3.7-13.2-2.9 0 0 3.1-11.4 6.8-15.6 0 0 11.1-21.2-.2-45.1 0 0-7.1-7.4-10-12.5 0 0-3.1-9.7-9.3-9.9 0 0-7.1-5.4-8-8.9 0 0-4.9-9.8-11.9-9.5 0 0-7.9-3.8-14.8-3.6 0 0-17.3-9.7-26.9.9 0 0-14.7 8.5-14.5 11.8 0 0-3.4-40.9-2.2-49 0 0 2.8-9.2-.3-19.1 0 0 7.7-21.4 1.3-28.6 0 0 .6-5.5 4.3-8.5 0 0 11.3-8.1 11.8-12.5 0 0 2.6-4.9 5.9-7.5l8.6-5.4s6.4-6.4-1-8.4c0 0-9.6.7-10.6 5.4 0 0-7 7.9-11.8 5.5 0 0-9.8-5.2-8-19.9l1.4-26.4s.4-8.7-5.7-7.8c0 0-6.9 1-4.4 17.4 0 0-3.1 20.6-9.3 8 0 0-11.4-27.2-12.7-30 0 0-7.9-6.7-7.5 3.1l5.7 18.9s2.4 6.9-3.1-1.3c0 0-9.1-15.1-12.2-16.8 0 0-10.9-3-4.4 8.2 0 0 14.8 26.3 9.3 23.5 0 0-13.9-12.4-16.6-13 0 0-10.8-2.2-2.9 5.6 0 0 19.5 18 21.7 26.4 0 0 3.5 10.2 6.3 13.4 0 0 3.9 11.9 3.2 15.2 0 0-9.2 1.7-9.5 4 0 0 6.7 24.7-1.3 48 0 0-4.5 22.9-1.4 36.4 3.2 13.4.8 21.5 1 27.7.2 6.3 1.3 24.5 3.3 29.1 0 0-8.4 11.4-8 22.6 0 0-9.5-5.2-24.1-4.4 0 0 20.1 3.1 21.9 7.8 0 0 1.4 9.1-1.6 9.2 0 0-21.3 6.2-24.2 10.7 0 0-1.1.4-4.2.9 0 0 6.2 1.2 11.9-1.9 0 0 16.7-6.4 11.9-1.1 0 0-13.3 3.8-13.9 10 0 0 10.5-7.2 14.8-6.3 0 0 4.2-.1 2.1 4 0 0-3.4 3-2.8 8.8 0 0 3.6 1.7-6.2 9.3 0 0-5.6 5.4-5.5 8.7 0 0 7.5-7.5 12-9.2 0 0 3.4-2.6.9 5.9 0 0 .1 1.6 0 3.8-2-.5-4-1-5.9-1.6-.2.6-.3 1.4-.2 2.2-1.6-.5-3.3-1.4-3.3 1.1 1.6 0 2.1-1.1 2.6.7-2.3 1.9-5.9-1.4-7.9.4 1.4-2.9-4.4-2.9-5.7-5.2 0 .8-1.2.5-1.4 1.2 1.1.4 1 1.9 1.9 2.6 1.2.2 1.5-.6 2.6-.5 3 2.7 2.5 6.6 1.8 9.6-1.6-.2-3.1-.4-4-.9 0 0-17.1-5.7-20.5-2.9 0 0-10.8 1.1-13 .4 0 0 10.4 23 23.5 31.1 0 0 6.1 5.5 1.9 7.5 0 0-3.9 4.4-6.8 4.4H33c-9.4 0-32.3 12.2-32.3 21.4L.8 1440H2578l-3.2-227.1c0-9.1 8.1-21.3-1.4-21.3zm-556-243.2c-.5-.1-.6-.7-.5-1.6.8.9 1.3 1.7.5 1.6zm-30 240.7c.2.1.2.2.4.3-.2.3-.3.5-.5.8 0-.3.1-.7.1-1.1zm-11.6-462.6l.3 2 2.1 9.6.4 4.3-1.3 2.9-2.3 2.9-1.3.6c-.8-5.1-1.7-10.9-2.1-12.2-.7-2.4 1.7-8.4 4.2-10.1zm-40.9 275.7l8.9-15.2 2.4-5.7 2.6-8.2 2.2-14.2 2.2-8.4 1.2-2.7 1.6-2.2c3.7 8.7 10.7 18.5 12 22.6 1.5 5 10.7 33.9 8 33.7-2.7-.1-1.1 25-4.6 32.1s-4.5 29.3-4.5 29.3c-10.8 25.4-2.2 21.7-4.3 40.8-1.8 16.7 15.5 60.8 19.8 71.5-.7 1.4-1.8 2.6-4 3.3.9-1.9 1.9-3.7 2.4-6-2.6-1.4-5.3 2.1-5.3-.2.2-6.5-5-3.8-.8-7.1-6.5-2.5-7.7 8.8-11.1 12.9-.7-1.4-1-3.1-1.4-4.7 3.7-9.2 8.8-17.9 5.2-28.9-9.1-2.4-14.1 2.5-17.8 9.3l-2.1-7.4-5.1-15.2 1-30 .2-12.8-.9-10.5.5-4.4-.1-1.2-.8-1.8-.7-6.8-1.7-9.9-4.2-16.3-4-12.9-.9-5.4-.8-6.9 4.9-10.5zm-204.3 141.6l2.4 2.1c-2.6.9-4.7 2.5-6.1 4.6-.2-.4-.4-.8-.6-1.1 1.6-1.8 3-3.6 4.3-5.6zm-49.1-10.8c.5 0 .9-.1 1.3-.3-2.8 2.6-4.6 6.4-5.8 10.7 5.4-2.9 8.6-8.1 11.2-13.9-1.5.5-2.9 1.2-4.1 2 .7-.9 1.2-2.1 2.5-2.4 2.6-.5 1.5 2.2 4.1 1.7.7-.7 1-1.7.9-3.1 8 .7 8.4-6.4 14.2-8l1 1.4 3.4 3.6 4.9 4.5 8 7.8c-12.2 8-20.7 19.9-29.7 31.2-.8-.6-1.6-1.1-2.4-1.4-3.4-7.3-4.8-16.3-10.1-21.8 1 5.3 2.8 11.8 5.1 18.1-5-5-9.6-8.8-13.2-10.5-.1-.1-.2-.1-.3-.2 1.6-2.2 3.1-4.5 4.3-7-2 1-4.1 3.5-5.9 6.3-9.8-5.2-10-9.5-15.8-21.4 0 0-.7-2.8-1.7-7 2.7-2.1 4.5-5.2 6-8.6 1.5 5.1 7 6.6 8.8 11.4 5.3 1.7 11.7 2.2 13.3 6.9zm-99.8-220.7c-.6 1.7-1.2 3.2-2 4.4-.6.9-1.1 1.7-1.5 2.6l-.6-.7-8.3-9-10-8.5-2.2-2.4c6.5 3.4 15.3 8.3 24.6 13.6zm-23.8-48.5c2.8 2.3 13.1 7.2 26.5 13.4 0 3 .1 7.4-.1 12.4-14.5-14.3-26.4-25.8-26.4-25.8zm77 159.1l4.4 4.2 15.1 16.4 4.3 4.8 4.5 6.1 8.1 13.4 7.9 14.7c-6 1.3-11.4 5.6-17.2 7.7 1.8 8.1-3 12.7-8.4 16.7-.9-1.3-1.7-2.9-2-5-1.2-.2-3 .1-3.2-1.1-.2 0-.3.1-.4.2-1.8-7.4-3.3-13.4-3.6-14.1-.9-2.1-8.9-26.9-9.8-42.3-.2-5.5-.2-13.3.3-21.7zm-62.9-191c3.2.6 9.7.9 18.2.8.3 1.3.7 2.6.9 3.8-16.1-3.4-25.3-5.6-19.1-4.6zm-23.1 16.3l.4-6.4.8-3.7 1.7-3.6.1-.4c3.3.3 7.4 1 12.6 2.3 4.8 1.2 14.9 2.8 27.3 4.7.1 1.5.1 2.8 0 4-1.9 11.6-6.6 21.3-7.3 30-3.2-1.1-6-2.1-8.3-2.8-10.1-3.2-20.3-14.2-27.5-23.4l.2-.7zm-5.7-14.1l-1 1.1-1.3 2.3c-1.1-1.7-1.6-2.7-1.5-2.7.3.3 1.2-.3 3.8-.7zm-113.7 334.1c4.9 7.6 9.6 14.6 12.7 19.1.1.1.2.3.3.5-.7 1-1.6 1.8-2.3 2.7-1.2-7.5-5.6-13.9-12.5-17.2 1.1-1.7 1.8-3.4 1.8-5.1zm-66.3-7.5c-.4 1.1-.8 2.1-1.2 3.2-.4-1.8-.6-4-1.5-5.4 1.2-1.6 2.7-2.7 3.8-4.3.5 1.7 1.2 3.5 2 5.2-1.1.6-2.1 1-3.1 1.3zm3.7.2c.9 2 2 4 3 6-1.4.6-3.1.9-5.6.5-.1 0-.1-.1-.2-.1.8-2.1 1.7-4.2 2.8-6.4zm60 3.3c-2.9 1.7-5.5 4-7.9 6.8-2.5-.2-5.2-.2-8 .2-.8-.3-1.7-.6-2.6-.9-.2-.8-.5-1.5-.7-2.3-1.2 0-2.2.1-3 .2-.3-.9-.8-1.8-2-1.9 0-1.9 2.1-4.4-.5-5-.7 2.5-2.5 5.2-4.1 4.9.2.9.5 1.8.8 2.7-1 0-2.2-.2-3.8-.5-1.5-2 .3-6.9-3.1-7.3-4.1-.4-2.7 4.9-6.1 5.4-.3 0-.5 0-.8-.1 1.5-3.7 3.7-8.5 5.7-13.5.4 1.6 1.2 3.1 3 4.3 1.1-4.4 1.9-11 .4-15.4 1.1-5.9.7-11.3-3-15.1-.1-.1-.2-.1-.2-.2.8-.4 1.6-.7 2.6-.8-.7-1.9-.7-3.6-.4-5.1 8.4 5.3 15.8 11.2 18.6 17.1 1.8 4 4.6 9 7.7 14.4-5.5 1.9-9 7.1-7.3 13.2 1-.1 1.5.2 1.7.8 4.4-.8 7.7-4.2 9.1-8.3 1.3 2.3 2.6 4.3 3.9 6.4zm-7-226.7l1.1 2.6c-5.2 10.5-14.9 25.9-24.5 42.4-4.8 8.2-8 16.6-10.2 24.1-2.8 1-6.4 2.2-10.5 3.8 1.6-2.1 3.2-4.2 4.7-6.3 9.1-12.2 29.7-49.1 39.4-66.6zm-34.6 9.4c-1.3 7.6-14.8 44.1-24.1 68.8-5.6 2.1-11.8 4.3-17.9 6.5 16.9-26.2 43.8-85 42-75.3zm-58.3 160.4c10.4-3.2 16.9-5 21.9-5.6-2.1 13.4-25.7 15.1-18.2 30.8 9 .1 12.7-5.2 15.4-11.5 1.5 5.1 7 6.6 8.8 11.4 4 1.2 8.8 1.8 11.4 4.2-1.4 2.3-2.4 4.6-2.8 6.5s-.5 3.7-.4 5.6c-1.6.7-2.6 2.9-4.2 4-3.2-1.5-3-6-4.7-8.9-1 6 4.8 12.7 2.6 22.4-9 7.6-26.7 8.6-28.2 23.9-3.1 1.5-11.5-.1-11.5-.3v.1c-11.8-2.3-6.1-5.5-10.4-5.4l-2.2-19.2-1.1-8.2c4.5-2.3 8.6-5.9 13-7.6-1-6 1.8-8.2 5.5-9.4-1.8-2.9.1-5-2.2-8 2.7-4.1 3.3-3.4 2-7.9l-3.3-.1c-1.4-8.2-10.4-9.6-15.3-14.7 7.7.8 15.9.5 23.9-2.1zm-28.8 1.6c.5.1 1 .1 1.4.2-.6.3-1.1.6-1.6 1l.2-1.2zM1028.7 864l2.2-7.4.6-2.6-.5 6.9-.6 4.4.6 2.7.7 1.4-.1.3-1.5 3.1-.6 1.7-.3.2-.2-.2-1.5-1-.2-.6 1.4-8.9zm-2.9 66.6l2.2-8.9 3.8-10 4.8-8.4 2.3-4.9 1.1-3.3.2 1.1.7 2 1.5 2.4.4 2.1-2 2.4-.2 2.1.4 2 1 3.6.7 4 1.3 2.9 3.8 6.7 3.4 6.3 2.9 3.1 4.5 3 3.6.8 6.5-.2 2.3 2.3 1.5 4-.6.3-1.8-2.2-1.3-2.2h-1.1l-2.5 1.9-8.7-.6-6.6-1.6-16.5 1.1 1.4-1.8.2-1-.7-1.1-2.5-1.7-6.7-3.1.7-3.1zM974 1081.2l.9-1.6 1.5 2.5 3.9 6.7 4.2 5.2 6.1 6.5 11.7 13.3 22.2 22.5 1.5 2.5 2.7 3.8 1.1 7.6.4 11.2 1 15.6.4 2.7c-6.4 3.2-12.3 7-13.8 15.2l-.1-.1c-5.2-19.4 13.7-31.3 7.6-49.9-12.3-3.3-17 6.7-21.4 16.9h-.4c-.1-4.6.2-8.7.7-12.6-3-1-5.9-2.6-8.7-4.5-1 .4-2 .7-3.1.8.6 4.1-.2 11.9-2 17.1 6.7 2.3-.5 9.5 1.5 11.9-2.5-.3-5.2 1.5-7.2-.2-.6 1.1-1.6 1.9-2.5 2.7-1.6-2.5-1.3-6.6-2.2-10.2l.3-8.7.2-9.9-.7-8.1.4-3.4-.1-.9-.6-1.4-.5-5.3-1.3-7.7-3.3-12.7-3.1-10-.7-4.2-.6-5.5 4-7.8zm-192-64.9c6.4 7.1 10.9 12.1 10.9 12.1-1.2-2-5.1-7.1-10.3-13.4 3.4-6.4 5.8-12.3 6.6-16.4 1-4.9 2.6-10.4 4.6-16 2.8 1.7 5.6 3.5 8.3 5.2-2.7-1.8-5.4-3.8-8.1-5.7 1-3.1 2.1-6.2 3.1-9.3 18.4 7.5 36.3 14.3 35.4 13.7-.7-.5-18-7.6-35-14.9 2.5-7.6 4.7-15 5.3-21.2 1.2-13.9 2.2-45.3 2.4-51.5.2-6.3-.3-14.8-.3-14.8s2.6-3.7 5.5-8.4l.7.6 4.7 6.7 1.4 2.5 2.6 2.2 3.4 1.3 2.8 1 11.6 9.8 5.6 5.9 11.8 9.4 5.2 4.2 4.9 2.6 3.7.9 6.3 1.1 1.4 1.2 1.1 2.8.5 2.4 2.4 3.8 7.2 8.6 11.5 12.8 18.6 23.5 5.3 6.8 5.4 8.7 9.6 18.9 1.2 2.7-3.9 8.5-.8 7.8-1.3 7.9-.5 2.1.4 1.3-10.6 25.7-1.4 1.2-.8 1.7-.7 3.1-.5 3-1.5.3-1.8.2-.9.1h-4.5l-.9-.5-.6-.5h-.9l-1.4.7-1 .3-6.1 1.5-.6.4-2.8.6-.5-.4-.4-1.7.4-3.3.1-4.7-.1-4.2.3-.2 1.8-.2 1.9-1 .8-1.1.2-1.4v-.7l.1-1.5-1.6-10.2-1.4-6.7-.6-2.3-.2-1.5-1-2.2-1-3.6-.2-.6-.7-4.1.2-1.1-.4-2.1-.7-4.1-1.2-1.9-.8-1.8-.8-1.1-.6-1.5-3-2.7-4-2.7-.6-.6-1.1-.7-2.2-1.6-2.3-1.2-3.4-.9-2.4-.4h-3.7l-1.2-.4-.9-.4-1.9-.6-2.3.4-1.2.5-.8-.1.1-.3.2-.5-.3.1-1.2.5v-3.1l-1-2.9h-1.9l-.8 2.8-1.3 1.6-.7.9-4 1.5-.7.6-1 .3-1 .5-1 .9-.8.5-.8.9-.9.4-.3-.2-.7.2-2.6.5-1.9.7-2.2.8-5.2 2.7-3.3 3.9-.5 1.1-1.3 1.6-2.9 3.5-1.1 1.7-1.8 2.2-1.3 2.8-.2 1-2 1.2-2.4 1.9v6l1.9 2.5 1.5 1.5 2.4 3.4.7 1 .6 2.2.7 1.5 1.8 2.7 1.5 4.9.5 1.1 1 1.3.3 1.2-1 1.5v1.2l.3 1.1.8 2 .6 2.3.9 1.6 2.5 3.7 2.2 3.5 1.8 1.7 2.7 1.6 2.1.3 3.7-.4 1.4 1.2 1 2.8-.3.8h-.3c-4.7-11.4-9.7-4.7-15.9-2-2-1.1-1.8-4.4-4.9-4.4-.4 1.3-2.4 3.4-2.6 4.9l-7.6.5s1.5.2.8.4c0 .1 1.2.2 1.2.3l-3.6.5-1.6.4-1.9 1.6-.7.1-1.8-1.3-2.2-1.2c4.5-10.6 9.1-23.5 2.2-30.6-8.9-8.9-20.9 2.1-25.8 11.5l-3.4-1.1-1.3-1.4-5.9-6.9-4.4-5.3-4.3-3.7c5.5-7.2 15.5-22.3 22.4-35.4zm-22.7-60.5c1.6 1.1 5 2.9 9.6 5-.2.8-.4 1.6-.6 2.3-7.7-5.9-12.1-9.5-9-7.3zm-18.5-6.6c.3.4 3.5-.7 13.2 7.2 2.3 1.9 7.3 5.3 13.5 9.4-.3.8-.7 1.5-1.1 2.1-4.3 5.8-9.5 9.9-12.3 14.4-1.4-1.4-2.6-2.7-3.7-3.6-8.5-7.9-9.9-29.9-9.6-29.5zm12.7 34.2c-.8 1.6-2 4-3.5 6.6-3.9-11.3-7.1-20.6-7.1-20.6.8 2 5 7.3 10.6 14zm-29.4 28.1c6.2-4.9 1.3-28.5 4-28.5 1.1 0 7.2 8.7 14 18.7-.8.8-1.5 1.5-2.3 1.9-5 2.8-4.8 6.8-14.5 9.2-1.4.4-2.7.6-4 .8 1.1-.7 2-1.4 2.8-2.1zm-2.7 126.9s6.2-25 6.3-26.3c.1-1.2 2.2-14.1 5.5-22.9l4.3 4.4 7.2 6.9 11.7 12.7 3.3 3.7 3.5 4.8 6.3 10.4 5.6 10.5c-6 4.5-15.8 10.4-22 12.1-1.3.4-2.6.7-3.9 1-.8-2.4-1.2-4.9-1.2-6.5-2-1.7-3.4 2.2-4.6-.8 5.3-.8 1.5-3.5.9-6.9 0 0 1.4-.9 1.4-1.8-.1-1.2-.3-2-.7-2.7-2.6 0-5.2-.4-7.9-1.2-3.6 2.7-.8 8.7-2.2 12.3-.6-1.5-3.2-1.7-3.3.5 2.5 0 4.8.2 5.9 1.4-2.2-.7-1.1 1.9-1.4 3.1 2.8-.1 1 3.9 3.8 3.9-.1.1-.1.2-.2.4-4.3.3-8.7-.3-14-2.3l-2.7-2.7c-2.6-4.3-1.8-7-1.6-14zm-88.5-153.7l.6 1.1c-3.5 2.3-7.3 4.8-11.2 7.3-4.9 3.2-9 7-12.2 10.5-1.8-.2-4.1-.4-6.7-.6 1.5-.7 2.9-1.5 4.3-2.2 5.3-2.8 15.7-9.6 25.2-16.1zm-10.4-11.9l1.1 1.1c-6 6.2-19.7 19.1-29.6 28.3-3.6-.3-7.6-.6-11.5-1 12-7.2 31.6-22.4 40-28.4zm-72.1 131.3c-.1-8.8-.1-15.1-.1-15.9.2-4.8.1-11.3-1.1-13.4-1.9-3.5 15.9-12.4 13.4-19.8-2.3-6.7-3.9-9.2-4.6-10.5 8.1 1.5 9.9 3 12.9 7.2 3.9 5.3 16.9 20.6 16.5 29.5-.3 6.6.8 18.3 1.8 27-6.8-3.8-11.8-12.9-17.3-15.1-3.4-7.3-4.8-16.3-10.1-21.8 2.5 13 9.5 32.9 17.5 41-.1.5-.2.9-.3 1.4-2.4 1-4.4 2.3-7.8 2.2-1-1.5-2.6-1 0-3-2-.8-3.4 0-4.6 1.5-1.7-2-1.6-6.6-5.7-6.5.1 1.9-.1 4.2-.4 4.2-1.2 0-2 2.1-2.8 2.8-.1 0-.1.4-.1.4v.4c-2 2-2.6 4.9-2.3 7.7-2.4 2.2-5.5 3.8-9.2 4.7 2.6 6.2-2.6 8.1-4.1 11.9 0-.8-.1-1.6-.1-2.4 0-7.3 8.6-27.5 8.5-33.5zm-13.3 81.3c.7.9 1.3 1.9 1.7 2.9-1.7.4-3.1.3-4.4-.2.9-.8 1.8-1.8 2.7-2.7zm-125.7-118.3c1-2.4 1.9-4.8 2.9-7.2.2.2.5.4.7.5 2.6.9 2.5 7.5 2.5 7.5s-1 1.3-2.2 3.6c-.6 1.1-3.4 2.6-6.6 3.9.8-2.9 1.7-5.7 2.7-8.3zM309 1191.6c.9-11.4 2.7-6.8 6.2-9.5 0 0 8.8-3.5 20.3-10.2.8 2 1.7 2.2 2.6 4.1-7.7 4.4-13.7 4.2-19.2 15.6H309zm24.2 4.8c3-3.2 6.1-6.3 8.5-9.7 1.6 3.2 3.2 6.2 4.8 9.1l-.6.6h-12.7zm192.8 0c2.3-2.1 4.6-4.3 6.6-6.3 2.6 1.5 4.9 3.2 6 6-.1.1-.2.2-.4.2l-12.2.1zm785.1 0l-.4-2.3c1.4.4 2.7.9 4.2 1.2-1.4-1.2-2.9-2.2-4.5-3.2l-1.3-7.4c4.4 2.6 8.3 5.7 12.7 8.3.4 1.2 1.4 2.1 1.9 3.3l-12.6.1zm129.2 0c0-.7.2-1.5.2-2.2 1-1.6 1.9-3.4 3-4.9 1.3 1.9 2.7 4.1 4.2 6.6-1.1-.1-2.2-.3-3.4-.3-.2.3-.2.6-.4.9l-3.6-.1zm290.3-4.8c-5.5-11.4-15-11.2-19.9-20.4-1.9 1.7 1.7 8.4-2.1 9.7-3.1-1.7-5.8-3.9-8.4-6.7 2.3-1.2 5-1.5 8.8-1.5 1.9-6.8 6.3-11.8 10.9-16.7 1.5 1.8 3.5 3.2 5.9 3.8.1-.4.4-.5.8-.6.4.1.6.4.7.7 5.2-.9 8.9-5.5 9.7-10.6l5.2 4.5 1.2 1.7 2.2 2.7 1.2 5.6.9 8.3 1.6 11.5.2.8c-1.1.3-1.6 1.2-3.1 1.1-.1-4.6.2-8.7.7-12.6-3-1-5.9-2.6-8.7-4.5-1 .4-2.1.7-3.1.8.6 4.1-.2 9.6-2 14.7 5.4 1.9 1.8 7.7 1.3 7.7h-4zm17.1 4.8c-.3-3.4 1.4-7.3.7-10.2 0 .6 1.1.8 1.3 0v-1l.7 3c-.5 2.9-1.2 5.7-2.2 8.2h-.5zm213.7 0c-.4-.4-.7-.9-1.1-1.2.2-4.6 0-9.3.4-14.2 1.3 4.8 2.8 10.1 4.5 15.4h-3.8zm8.1 0c-1.9-4.9-2.7-10.8-5.3-15.1 3.3-2 8.8-1.6 12.8 2.4-3.7 3.7-2.2 8.3-1 12.6l-6.5.1zm19.2-2c.5-.8.9-1.7 1.3-2.5.4 1.2.6 2.7.4 4.4-.6-.6-1.2-1.2-1.7-1.9zm4.1 2c-.3-2.1-.6-4.2-1.1-6.1 2-1.1 5.1-1.1 7.5-1.8.6.8 1.4 1.8 2.1 3l1.8 4.9h-10.3zm164.2-4.8c-2.7 0-5.5 0-8.9-.7-.4-.9-.6-.8-1.3-1.5 5.8-16.6 10-28 10.2-28.7.8-2.2 4.5-10.3 5.2-10.5.7-.2 2.8-26.5 3-28.8.2-2.3-2.2-10.8-1.6-12.7.6-1.9-.6-7.4-1.6-11.7-1.1-4.3-1.3-7-1-9.1s-.2-6-.5-8.4-4.7-15.8-4.7-15.8-4.7-24.5-9.1-35.9c-4.4-11.4-33.5-28.4-34.6-31.4-1.2-3.1-16.9-12-16.9-12l-1-3.1c1.8-1.8 8.7-22.1 8.7-22.1 6.2 1.5 7.6-10.9 7.9-18l2.2 4 3.7 9 1.1 3.2-6.5 4.3-2.4 2.1-.5 1.2.3 1.1 2.7 2.7 6.3 8.5 8.2 11.9 2.1 5.4 1.2 3.7 2.4 4.1 4 6.6 4.7 8 8.7 13.1 8 14.2 4.2 5.9 6.5 7 4.5 4.8 1.3 2.1 2.8 6.6 3.6 11.3 3.1 6.4 2.6 4.3 9.1 11.4 5.4 7.5.2 5.7-.1 4.5-1.7 10.9-1.4 13.7-.1 8.3.3 5.6-.4 1.5.1 1 .9 3.6.6 8.6 1.7 8 2.1 8.6H2157z" fill="#303030"/></svg>